<svg width="512" height="512" viewBox="0 0 512 512" fill="none" xmlns="http://www.w3.org/2000/svg">
<g clip-path="url(#clip0_30_28)">
<rect x="2" width="510" height="512" fill="#020E1B"/>
<path d="M222.531 1C220.337 1.99661 217.75 3.49301 214.999 3.91348C183.013 8.80182 153.623 20.6186 125.723 36.6626C120.85 39.465 120.807 43.5087 120.858 48.7471C114.763 54.0048 108.58 58.2607 102.941 63.1433C95.3114 69.7481 88.0987 76.8339 80.7074 83.7133C76.3587 79.7452 70.9177 79.6577 67.4176 84.2044C57.2484 97.4144 46.3592 110.223 37.6136 124.341C23.908 146.467 13.8319 170.425 8.07697 195.951C5.92751 205.485 4.63611 215.212 2.89619 224.841C2.79488 225.401 2.17811 225.869 1.40061 226.19C1 151.073 1 76.1469 1 1C74.6874 1 148.375 1 222.531 1Z" fill="black"/>
<path d="M513 224.531C512.34 224.418 511.162 223.89 511.093 223.245C507.825 192.67 498.071 164.109 483.922 137.015C476.046 121.934 466.331 108.026 455.47 94.8644C438.055 73.759 417.815 55.944 394.773 41.2874C369.269 25.0649 341.978 13.0549 312.251 6.97736C304.909 5.47636 297.504 4.28945 290.14 2.89423C289.578 2.7879 289.114 2.1697 288.802 1.39472C363.594 1 438.187 1 513 1C513 75.3541 513 149.708 513 224.531Z" fill="black"/>
<path d="M290.469 513C290.749 512.336 291.436 511.183 292.256 511.079C315.71 508.114 338.052 501.403 359.781 492.143C379.618 483.689 397.95 472.702 414.763 459.455C439.642 439.853 460.612 416.554 476.969 389.257C490.479 366.712 500.39 342.703 506.353 317.126C508.349 308.564 509.461 299.797 511.042 291.136C511.204 290.251 511.81 289.447 512.605 288.802C513 363.594 513 438.187 513 513C438.979 513 364.958 513 290.469 513Z" fill="black"/>
<path d="M1 289.469C1.66397 289.754 2.82422 290.45 2.9198 291.271C5.79286 315.929 13.0295 339.289 22.8987 362.014C31.1595 381.035 41.815 398.611 54.5499 414.767C74.1562 439.642 97.5009 460.53 124.732 476.995C148.683 491.477 174.452 501.286 201.567 507.712C208.221 509.289 215.101 509.907 221.864 511.044C222.748 511.193 223.553 511.81 224.198 512.605C149.739 513 75.4789 513 1 513C1 438.646 1 364.292 1 289.469Z" fill="black"/>
<path d="M91.1641 270.84C91.3002 268.791 91.2609 266.335 92.0213 264.159C94.2488 257.783 96.7948 251.518 99.5303 245.043C102.826 247.628 105.807 250.381 109.231 253.543C102.975 259.499 97.1643 265.03 91.1641 270.84Z" fill="#004F5A"/>
<path d="M283.762 178.764C277.386 185.14 271.293 191.301 265.123 197.383C259.149 203.273 254.85 203.295 248.904 197.407C239.789 188.379 230.743 179.281 221.687 170.192C220.772 169.274 219.996 168.218 219.449 167.573C231.096 156.046 242.532 144.727 253.617 133.756C265.508 145.735 278.116 158.436 291.706 172.126C289.632 173.848 286.822 176.181 283.762 178.764Z" fill="#004F5A"/>
<path d="M185.837 133.156C193.849 127.367 201.772 121.799 209.914 116.572C215.176 113.194 220.758 110.315 226.492 107.024C231.865 111.172 236.942 115.51 241.725 119.596C229.719 131.633 218.37 143.012 206.305 155.108C199.645 148.082 192.743 140.802 185.837 133.156Z" fill="#004F5A"/>
<path d="M381.1 54.0413C386.747 57.36 392.882 60.0703 397.942 64.122C409.066 73.0288 420.46 81.8325 430.294 92.0705C458.136 121.056 477.961 154.831 488.246 193.975C492.775 211.214 495.226 228.631 496.173 246.449C498.216 284.883 490.726 321.301 474.942 356.187C465.156 377.815 452.15 397.276 436.523 415.201C414.892 440.013 389.176 459.325 359.71 473.532C335.804 485.058 310.562 492.654 283.987 495.038C273.26 496.001 262.457 497.182 251.73 496.862C224.194 496.04 197.455 490.806 171.605 480.942C146.829 471.488 124.335 458.176 104.068 441.294C83.4092 424.086 65.7244 404.12 52.5637 380.355C54.0742 379.994 55.2359 379.954 56.3979 379.941C67.9668 379.812 78.0341 375.002 81.3904 363.05C82.2462 360.002 83.0132 356.929 84.1306 354.032C85.0591 354.964 85.7168 355.704 86.2913 356.504C95.2361 368.958 111.027 370.193 121.61 362.37C127.971 357.667 133.155 351.352 138.769 345.665C142.728 341.654 143.02 336.42 139.664 333.289C136.321 330.169 131.923 330.68 127.784 334.758C123.275 339.199 118.917 343.798 114.321 348.146C108.435 353.714 102.293 353.437 98.7936 346.271C92.6232 333.636 87.4466 320.505 82.2276 307.433C81.6216 305.915 82.8045 302.891 84.1381 301.516C94.5723 290.756 105.295 280.276 115.79 269.574C117.258 268.077 117.972 265.84 119.055 263.911C121.726 266.346 122.611 267.091 123.427 267.905C136.271 280.736 149.076 293.605 161.956 306.4C168.091 312.493 172.017 312.445 178.037 306.434C188.055 296.43 197.693 286.009 208.167 276.509C220.342 265.466 218.652 247.736 208.258 237.622C187.729 217.644 167.647 197.207 147.441 176.899C145.987 175.437 145.028 173.483 144.015 171.478C153.382 162.076 162.574 152.953 172.133 143.831C174.154 145.2 175.929 146.445 177.442 147.954C197.974 168.431 218.461 188.952 238.977 209.445C249.211 219.667 264.842 219.608 275.141 209.329C285.639 198.851 296.128 188.364 306.604 177.864C312.191 172.265 312.184 168.725 306.574 163.106C293.858 150.368 281.117 137.655 268.407 124.912C267.173 123.675 266.083 122.295 265.063 121.137C265.551 120.291 265.667 119.955 265.891 119.724C268.212 117.334 270.586 114.994 272.876 112.575C276.902 108.326 277.189 103.714 273.709 100.251C270.237 96.7946 265.551 97.0148 261.419 101.196C258.762 103.885 256.507 106.971 255.021 108.747C244.13 97.8378 234.37 88.061 224.753 78.4273C224.575 78.4895 225.304 78.1339 226.072 77.9817C242.978 74.6357 260.026 73.9949 277.093 76.1115C300.726 79.0424 323.139 85.9948 344.077 97.5047C352.978 102.398 353.969 108.265 346.82 115.667C341.61 121.06 336.219 126.277 330.937 131.601C326.466 136.107 325.961 140.26 329.393 143.768C332.601 147.049 337.723 146.66 341.781 142.665C348.076 136.47 354.354 130.254 360.516 123.927C370.204 113.982 368.806 95.9636 357.826 87.4919C356.409 86.3984 355.183 85.0566 354.111 83.4887C363.141 83.1573 370.906 80.5865 375.843 72.9443C379.478 67.3175 381.496 60.9388 381.1 54.0413ZM247.487 417.987C251.578 413.628 255.669 409.268 259.987 404.668C262.004 406.592 263.334 407.812 264.61 409.086C275.098 419.561 285.654 429.969 296.025 440.558C302.119 446.78 308.449 449.682 317.201 445.525C328.284 440.261 339.957 436.227 350.987 430.863C369.662 421.782 372.592 402.127 357.888 387.418C330.925 360.445 303.954 333.479 276.985 306.512C264.434 293.962 249.645 293.908 237.103 306.434C209.882 333.62 182.678 360.824 155.491 388.045C142.022 401.531 144.459 420.745 161.113 429.944C190.133 445.975 221.478 453.655 254.478 454.937C260.065 455.154 264.821 451.334 264.876 446.987C264.94 441.937 261.498 439.255 254.932 439.002C248.471 438.753 242.006 438.449 235.564 437.916C233.819 437.772 232.15 436.71 229.42 435.682C235.837 429.401 241.412 423.944 247.487 417.987ZM322.513 221.013C316.62 226.906 310.691 232.765 304.841 238.701C294.382 249.314 294.383 264.848 304.818 275.287C332.976 303.458 361.135 331.629 389.32 359.774C394.393 364.84 400.522 367.331 407.775 366.99C412.322 366.776 414.235 363.872 414.853 359.979C415.414 356.45 412.142 353.135 408.798 351.944C405.035 350.603 400.856 349.116 398.117 346.415C371.414 320.092 344.968 293.507 318.476 266.969C317.078 265.569 315.776 264.024 314.683 262.379C311.873 258.146 312.249 254.316 315.717 250.771C318.747 247.674 321.844 244.642 324.898 241.569C331.094 235.333 337.28 229.089 343.831 222.485C356.449 235.061 368.602 247.112 380.595 259.318C381.166 259.9 380.803 262.291 380.065 263.104C377.644 265.771 374.823 268.071 372.204 270.562C367.397 275.137 366.812 280.321 370.626 284.118C373.917 287.395 378.816 286.731 383.299 282.117C386.537 278.783 389.507 275.19 392.801 271.482C395.022 273.608 396.352 274.834 397.631 276.112C409.422 287.89 421.23 299.65 432.967 311.483C435.629 314.166 438.543 315.686 442.352 314.667C446.167 313.648 447.356 310.55 447.944 307.149C449.693 297.035 452.308 286.957 452.844 276.774C453.635 261.728 453.969 246.508 452.59 231.538C450.929 213.495 445.68 196.048 438.515 179.34C435.379 172.027 431.861 164.815 427.828 157.961C420.074 144.783 400.37 143.256 388.788 154.774C366.809 176.632 344.932 198.594 322.513 221.013Z" fill="#004F5A"/>
<path d="M132.829 185.882C134.21 187.068 135.674 188.171 136.958 189.453C157.105 209.564 177.231 229.694 197.354 249.828C203.028 255.506 203.083 259.36 197.422 265.082C188.652 273.946 179.809 282.737 171.356 291.2C158.51 278.272 145.907 265.588 132.143 251.736C133.749 250.528 136.434 249.015 138.46 246.877C142.801 242.293 143.013 237.322 139.456 234.073C135.903 230.827 131.05 231.386 126.753 235.86C124.813 237.879 123.341 240.348 121.186 243.244C115.623 237.076 111.319 232.305 107.112 226.869C109.976 221.102 112.427 215.795 115.579 210.943C121.102 202.442 127.056 194.22 132.829 185.882Z" fill="#004F5A"/>
<path d="M380.933 53.7335C381.496 60.9389 379.478 67.3176 375.843 72.9443C370.906 80.5866 363.141 83.1573 353.761 83.4959C340.67 78.5249 328.383 72.6178 315.618 68.042C301.18 62.8664 286.01 61.0014 270.679 59.6229C253.501 58.0784 236.698 59.7182 219.913 62.4967C203.812 65.1621 188.372 70.389 173.636 77.26C165.964 80.8368 157.982 84.9917 152.085 90.8446C142.797 100.062 144.397 115.604 154.023 125.605C159.902 131.713 165.849 137.757 171.765 143.83C162.574 152.953 153.382 162.076 143.714 171.368C136.425 165.077 129.617 158.614 122.799 152.16C116.862 146.54 105.518 145.031 97.8867 147.805C88.8792 151.078 84.8757 158.444 80.86 166.103C67.8324 190.95 61.1761 217.606 59.0589 245.383C57.835 261.438 59.2882 277.505 62.1543 293.347C66.0157 314.69 73.4566 334.819 83.8211 353.868C83.0133 356.929 82.2462 360.002 81.3904 363.05C78.0341 375.002 67.9668 379.812 56.3979 379.941C55.2359 379.954 54.0742 379.994 52.4572 380.022C42.6503 363.008 34.0958 345.651 28.557 326.94C23.5515 310.031 19.7432 292.919 19.0688 275.226C18.7281 266.287 17.7976 257.315 18.2284 248.412C19.4736 222.681 24.1273 197.595 33.2981 173.376C41.8656 150.749 53.6262 129.978 68.2125 110.764C71.8973 105.91 75.8457 101.229 79.976 96.7485C83.6799 92.7301 84.2951 88.7777 80.8793 84.0177C88.0988 76.8339 95.3115 69.7481 102.941 63.1434C108.58 58.2608 114.763 54.0048 120.885 49.1786C125.023 51.1786 128.447 55.3792 133.872 52.1814C135.997 50.9292 138.372 50.1044 140.504 48.8623C163.167 35.6557 187.476 26.9689 213.204 22.0398C231.007 18.6287 248.984 17.227 267.031 18.2008C295.139 19.7175 322.447 25.3839 348.249 36.8987C359.338 41.8472 369.941 47.8836 380.933 53.7335Z" fill="#020C19"/>
<path d="M513 225C513 246.021 513 267.042 512.605 288.334C511.81 289.447 511.203 290.251 511.042 291.136C509.461 299.798 508.349 308.564 506.353 317.126C500.39 342.703 490.479 366.712 476.969 389.257C460.612 416.554 439.642 439.853 414.763 459.455C397.95 472.702 379.618 483.689 359.781 492.143C338.052 501.403 315.71 508.114 292.256 511.079C291.436 511.183 290.749 512.336 290 513C268.312 513 246.625 513 224.666 512.605C223.553 511.81 222.748 511.193 221.864 511.044C215.101 509.907 208.221 509.289 201.567 507.712C174.452 501.286 148.683 491.477 124.732 476.995C97.5009 460.53 74.1562 439.642 54.5499 414.767C41.815 398.611 31.1595 381.035 22.8987 362.014C13.0295 339.289 5.79286 315.929 2.9198 291.271C2.82422 290.45 1.66397 289.754 1 289C1 268.312 1 247.625 1.40062 226.659C2.17812 225.869 2.79488 225.401 2.89619 224.841C4.63611 215.212 5.92751 205.485 8.07697 195.951C13.8319 170.425 23.908 146.467 37.6136 124.341C46.3592 110.223 57.2484 97.4144 67.4176 84.2044C70.9177 79.6577 76.3587 79.7452 80.8792 84.0177C84.295 88.7777 83.6798 92.7301 79.9759 96.7485C75.8456 101.229 71.8972 105.91 68.2124 110.764C53.6261 129.978 41.8655 150.749 33.298 173.376C24.1272 197.595 19.4735 222.681 18.2283 248.412C17.7975 257.315 18.728 266.286 19.0687 275.225C19.7431 292.919 23.5514 310.031 28.5569 326.94C34.0957 345.651 42.6502 363.008 52.1085 380.357C65.7243 404.12 83.4091 424.086 104.068 441.294C124.335 458.176 146.829 471.488 171.605 480.942C197.455 490.806 224.193 496.04 251.73 496.862C262.457 497.182 273.26 496.001 283.987 495.038C310.562 492.654 335.804 485.058 359.71 473.532C389.176 459.325 414.892 440.013 436.523 415.201C452.15 397.276 465.156 377.815 474.942 356.187C490.726 321.301 498.216 284.884 496.173 246.449C495.226 228.631 492.775 211.214 488.246 193.975C477.961 154.831 458.136 121.056 430.294 92.0705C420.46 81.8325 409.066 73.0288 397.942 64.122C392.882 60.0703 386.747 57.36 380.933 53.7335C369.941 47.8836 359.338 41.8472 348.249 36.8987C322.446 25.3839 295.139 19.7175 267.031 18.2008C248.984 17.227 231.007 18.6287 213.203 22.0398C187.476 26.9689 163.167 35.6556 140.503 48.8623C138.372 50.1043 135.997 50.9292 133.872 52.1813C128.447 55.3792 125.023 51.1786 121.039 48.456C120.807 43.5087 120.85 39.465 125.723 36.6626C153.623 20.6186 183.013 8.80182 214.999 3.91348C217.75 3.49301 220.337 1.9966 223 1C244.688 0.999999 266.375 0.999999 288.334 1.39472C289.114 2.1697 289.578 2.7879 290.14 2.89423C297.504 4.28945 304.909 5.47636 312.251 6.97736C341.978 13.0549 369.269 25.0649 394.773 41.2874C417.815 55.944 438.055 73.759 455.47 94.8644C466.331 108.026 476.046 121.934 483.922 137.015C498.071 164.109 507.825 192.67 511.093 223.245C511.162 223.89 512.34 224.418 513 225Z" fill="#04F8E0"/>
<path d="M247.237 418.237C241.412 423.944 235.837 429.401 229.42 435.683C232.15 436.71 233.819 437.772 235.564 437.916C242.006 438.449 248.471 438.753 254.932 439.002C261.498 439.255 264.94 441.937 264.876 446.987C264.821 451.334 260.065 455.154 254.478 454.937C221.478 453.655 190.133 445.975 161.113 429.945C144.459 420.745 142.022 401.531 155.491 388.045C182.678 360.824 209.882 333.62 237.103 306.434C249.645 293.908 264.434 293.962 276.985 306.512C303.954 333.479 330.925 360.445 357.888 387.418C372.592 402.127 369.662 421.782 350.987 430.863C339.957 436.227 328.284 440.261 317.201 445.525C308.449 449.682 302.119 446.78 296.025 440.558C285.654 429.969 275.098 419.561 264.61 409.086C263.334 407.812 262.004 406.592 259.987 404.668C255.669 409.268 251.578 413.628 247.237 418.237ZM225.103 341.454C223.05 342.851 223.397 344.028 225.101 345.631C229.221 349.51 233.156 353.586 237.152 357.597C244.994 365.468 252.827 373.349 260.609 381.171C272.051 372.159 274.458 371.514 278.663 376.097C282.882 380.695 281.885 383.945 273.196 393.626C284.715 405.146 296.18 416.741 307.874 428.099C309.013 429.206 311.897 429.662 313.416 429.047C323.703 424.886 334.028 420.734 343.971 415.829C352.63 411.557 353.257 405.86 346.536 399.126C319.364 371.9 292.159 344.706 264.941 317.525C259.111 311.703 254.851 311.765 248.915 317.669C241.122 325.418 233.372 333.21 225.103 341.454ZM196.038 370.538C186.383 380.195 176.673 389.798 167.093 399.529C161.095 405.621 161.284 411.398 168.801 415.077C181.398 421.243 194.529 426.333 207.559 431.568C208.817 432.074 211.335 430.847 212.594 429.691C217.13 425.529 221.374 421.049 225.735 416.697C233.447 408.999 241.165 401.307 248.201 394.29C235.367 381.45 222.928 369.005 209.95 356.021C205.716 360.446 201.127 365.242 196.038 370.538Z" fill="#04F8E0"/>
<path d="M84.1306 354.032C73.4567 334.819 66.0158 314.69 62.1544 293.347C59.2882 277.505 57.8351 261.438 59.0589 245.382C61.1761 217.606 67.8324 190.95 80.86 166.103C84.8757 158.444 88.8792 151.078 97.8867 147.805C105.518 145.031 116.862 146.54 122.799 152.16C129.617 158.614 136.425 165.077 143.538 171.647C145.028 173.483 145.987 175.437 147.441 176.899C167.647 197.207 187.729 217.644 208.258 237.622C218.652 247.736 220.342 265.466 208.167 276.509C197.693 286.009 188.055 296.43 178.037 306.434C172.017 312.445 168.091 312.493 161.956 306.4C149.076 293.605 136.271 280.736 123.427 267.905C122.611 267.091 121.726 266.346 119.055 263.911C117.972 265.84 117.258 268.077 115.79 269.574C105.295 280.276 94.5723 290.756 84.1381 301.516C82.8045 302.891 81.6216 305.915 82.2276 307.433C87.4466 320.505 92.6232 333.636 98.7936 346.271C102.293 353.437 108.435 353.714 114.321 348.146C118.917 343.798 123.275 339.199 127.784 334.758C131.923 330.68 136.321 330.169 139.664 333.289C143.02 336.42 142.728 341.654 138.769 345.665C133.155 351.352 127.971 357.667 121.61 362.37C111.027 370.193 95.2361 368.958 86.2913 356.504C85.7168 355.704 85.0591 354.964 84.1306 354.032ZM99.6239 244.271C92.9188 237.577 86.2138 230.883 78.7508 223.433C75.2257 244.296 75.1666 263.818 77.6093 283.887C82.426 279.286 86.7001 275.203 91.354 270.561C97.1643 265.03 102.975 259.499 109.231 253.543C105.807 250.381 102.826 247.629 99.6239 244.271ZM107.015 227.534C111.319 232.305 115.623 237.076 121.187 243.244C123.341 240.348 124.813 237.879 126.753 235.86C131.051 231.386 135.903 230.827 139.456 234.073C143.013 237.322 142.801 242.293 138.46 246.877C136.435 249.015 133.749 250.528 132.143 251.736C145.907 265.588 158.51 278.272 171.356 291.2C179.809 282.737 188.653 273.946 197.423 265.082C203.083 259.36 203.029 255.506 197.354 249.828C177.232 229.694 157.105 209.564 136.958 189.453C135.674 188.171 134.21 187.068 132.618 185.274C126.502 179.141 120.463 172.929 114.247 166.899C108.766 161.581 102.219 161.724 99.3042 167.74C94.0188 178.648 89.3685 189.87 84.6983 201.063C84.1609 202.351 84.6106 204.849 85.575 205.837C92.5375 212.971 99.7505 219.861 107.015 227.534Z" fill="#04F8E0"/>
<path d="M172.133 143.831C165.849 137.757 159.902 131.713 154.023 125.605C144.397 115.604 142.797 100.062 152.085 90.8446C157.982 84.9916 165.964 80.8368 173.635 77.26C188.372 70.389 203.812 65.1621 219.913 62.4967C236.698 59.7182 253.501 58.0784 270.679 59.6229C286.01 61.0014 301.18 62.8664 315.618 68.042C328.383 72.6177 340.67 78.5249 353.518 83.837C355.183 85.0566 356.409 86.3984 357.826 87.4919C368.806 95.9636 370.204 113.982 360.516 123.927C354.354 130.254 348.076 136.47 341.781 142.665C337.723 146.66 332.601 147.049 329.393 143.768C325.961 140.26 326.466 136.107 330.937 131.601C336.219 126.277 341.61 121.06 346.82 115.667C353.969 108.265 352.978 102.398 344.077 97.5047C323.139 85.9948 300.726 79.0424 277.092 76.1115C260.025 73.9949 242.978 74.6357 226.072 77.9817C225.303 78.1339 224.575 78.4895 224.753 78.4273C234.37 88.061 244.13 97.8378 255.021 108.747C256.507 106.971 258.761 103.885 261.419 101.196C265.551 97.0148 270.237 96.7947 273.709 100.251C277.189 103.714 276.901 108.326 272.876 112.575C270.585 114.994 268.212 117.334 265.89 119.724C265.666 119.955 265.551 120.291 265.062 121.137C266.082 122.295 267.173 123.675 268.406 124.912C281.117 137.655 293.858 150.368 306.574 163.106C312.184 168.725 312.191 172.265 306.604 177.864C296.128 188.364 285.639 198.851 275.141 209.329C264.841 219.608 249.211 219.667 238.977 209.445C218.461 188.952 197.974 168.431 177.442 147.954C175.929 146.445 174.154 145.2 172.133 143.831ZM185.841 133.522C192.743 140.802 199.645 148.082 206.305 155.108C218.37 143.012 229.719 131.633 241.725 119.596C236.942 115.51 231.865 111.172 226.568 106.238C219.869 99.5127 213.236 92.7179 206.399 86.1356C205.368 85.1427 203.057 84.3337 201.889 84.8053C190.502 89.4055 179.115 94.0469 167.976 99.2094C162.411 101.788 161.2 108.325 165.221 112.505C171.901 119.449 178.943 126.046 185.841 133.522ZM284.012 178.514C286.822 176.181 289.632 173.848 291.706 172.126C278.116 158.436 265.508 145.735 253.616 133.756C242.532 144.727 231.096 156.046 219.449 167.573C219.996 168.218 220.772 169.274 221.687 170.192C230.742 179.281 239.788 188.379 248.904 197.407C254.849 203.295 259.149 203.273 265.123 197.383C271.293 191.301 277.386 185.14 284.012 178.514Z" fill="#04F8E0"/>
<path d="M322.763 220.763C344.932 198.594 366.808 176.632 388.788 154.774C400.37 143.256 420.074 144.783 427.828 157.961C431.861 164.815 435.379 172.027 438.515 179.34C445.679 196.048 450.928 213.495 452.59 231.538C453.969 246.508 453.635 261.728 452.844 276.774C452.308 286.957 449.693 297.035 447.944 307.149C447.356 310.55 446.167 313.648 442.352 314.668C438.542 315.686 435.628 314.166 432.966 311.483C421.23 299.651 409.422 287.89 397.631 276.112C396.352 274.834 395.022 273.608 392.801 271.482C389.507 275.19 386.536 278.783 383.298 282.117C378.815 286.731 373.916 287.395 370.626 284.118C366.812 280.321 367.396 275.137 372.204 270.563C374.822 268.071 377.644 265.771 380.065 263.104C380.803 262.291 381.166 259.9 380.595 259.318C368.601 247.112 356.449 235.061 343.831 222.485C337.28 229.089 331.093 235.333 324.898 241.569C321.844 244.642 318.747 247.674 315.717 250.771C312.249 254.316 311.872 258.146 314.683 262.379C315.776 264.024 317.078 265.569 318.475 266.969C344.968 293.507 371.414 320.092 398.117 346.416C400.856 349.116 405.035 350.603 408.798 351.944C412.142 353.135 415.414 356.45 414.853 359.979C414.234 363.872 412.322 366.776 407.775 366.99C400.522 367.331 394.393 364.84 389.32 359.774C361.134 331.629 332.976 303.458 304.818 275.287C294.383 264.848 294.381 249.314 304.841 238.701C310.691 232.765 316.62 226.907 322.763 220.763ZM430.939 206.389C425.954 194.315 420.853 182.288 416.027 170.15C413.143 162.896 405.851 160.54 399.216 167.314C390.95 175.753 382.537 184.047 374.178 192.394C368.08 198.483 361.967 204.556 356.164 210.334C368.987 223.198 381.479 235.729 394.101 248.39C405.913 236.554 418.067 224.476 430.027 212.21C431.029 211.182 430.727 208.884 430.939 206.389ZM435.923 287.633C436.599 273.623 437.46 259.617 437.845 245.598C437.974 240.903 436.886 236.174 436.39 231.777C426.204 241.959 416.389 251.77 406.349 261.807C414.886 270.336 423.786 279.279 432.798 288.109C433.359 288.658 434.796 288.311 435.923 287.633Z" fill="#04F8E0"/>
<path d="M225.353 341.219C233.372 333.21 241.122 325.418 248.915 317.669C254.851 311.765 259.111 311.703 264.941 317.525C292.159 344.706 319.363 371.899 346.536 399.126C353.257 405.86 352.63 411.557 343.971 415.829C334.028 420.734 323.703 424.886 313.415 429.047C311.897 429.661 309.013 429.205 307.873 428.099C296.179 416.741 284.715 405.146 273.195 393.626C281.885 383.945 282.881 380.695 278.663 376.097C274.458 371.514 272.05 372.159 260.609 381.171C252.826 373.349 244.994 365.468 237.152 357.596C233.156 353.586 229.221 349.509 225.1 345.631C223.397 344.028 223.05 342.85 225.353 341.219Z" fill="#004F5A"/>
<path d="M196.288 370.288C201.127 365.242 205.716 360.446 209.95 356.021C222.928 369.005 235.367 381.45 248.201 394.29C241.165 401.307 233.447 408.999 225.735 416.697C221.374 421.049 217.13 425.529 212.594 429.691C211.335 430.847 208.817 432.074 207.559 431.568C194.529 426.333 181.398 421.243 168.801 415.077C161.284 411.398 161.095 405.621 167.093 399.529C176.674 389.798 186.383 380.195 196.288 370.288Z" fill="#004F5A"/>
<path d="M132.723 185.578C127.056 194.22 121.102 202.442 115.579 210.943C112.426 215.795 109.976 221.102 107.047 226.517C99.7503 219.861 92.5373 212.971 85.5748 205.837C84.6104 204.849 84.1607 202.351 84.698 201.063C89.3683 189.87 94.0186 178.648 99.304 167.74C102.219 161.724 108.765 161.581 114.247 166.899C120.463 172.929 126.502 179.141 132.723 185.578Z" fill="#020D19"/>
<path d="M90.974 271.119C86.6999 275.203 82.4258 279.286 77.6091 283.887C75.1664 263.818 75.2256 244.296 78.7506 223.433C86.2136 230.883 92.9187 237.577 99.4198 244.74C96.7947 251.518 94.2487 257.783 92.0212 264.159C91.2608 266.335 91.3001 268.791 90.974 271.119Z" fill="#020E1B"/>
<path d="M185.833 132.79C178.943 126.046 171.901 119.449 165.221 112.505C161.2 108.325 162.411 101.788 167.976 99.2094C179.115 94.0469 190.502 89.4055 201.89 84.8053C203.057 84.3337 205.368 85.1427 206.399 86.1356C213.236 92.7179 219.869 99.5127 226.382 106.726C220.758 110.315 215.176 113.195 209.914 116.572C201.772 121.799 193.849 127.367 185.833 132.79Z" fill="#020D19"/>
<path d="M430.985 206.782C430.727 208.884 431.029 211.182 430.027 212.21C418.067 224.476 405.913 236.554 394.101 248.39C381.479 235.729 368.987 223.198 356.164 210.334C361.967 204.556 368.08 198.483 374.178 192.394C382.537 184.047 390.951 175.753 399.216 167.314C405.851 160.54 413.144 162.896 416.028 170.15C420.853 182.288 425.954 194.315 430.985 206.782Z" fill="#004F5A"/>
<path d="M435.874 288.007C434.796 288.311 433.359 288.658 432.798 288.109C423.787 279.279 414.886 270.336 406.349 261.806C416.389 251.77 426.204 241.959 436.39 231.777C436.886 236.174 437.974 240.903 437.845 245.598C437.46 259.617 436.599 273.623 435.874 288.007Z" fill="#004F5A"/>
</g>
<defs>
<clipPath id="clip0_30_28">
<rect width="512" height="512" fill="white"/>
</clipPath>
</defs>
</svg>
