<svg version="1.1" id="Layer_1" xmlns="http://www.w3.org/2000/svg" xmlns:xlink="http://www.w3.org/1999/xlink" x="0px" y="0px"
	 width="100%" viewBox="0 0 512 512" enable-background="new 0 0 512 512" xml:space="preserve">
<path fill="#05B9A7" opacity="1.000000" stroke="none" 
	d="
M513.000000,225.000000 
	C513.000000,246.020889 513.000000,267.041779 512.605225,288.333862 
	C511.810272,289.446899 511.203491,290.251038 511.041901,291.136444 
	C509.461121,299.797516 508.349060,308.564117 506.352936,317.125641 
	C500.389709,342.702637 490.478821,366.711975 476.969177,389.256805 
	C460.611969,416.553589 439.642120,439.852844 414.763000,459.455353 
	C397.950134,472.702362 379.617737,483.689117 359.780579,492.143127 
	C338.052002,501.403198 315.709747,508.114410 292.255981,511.079254 
	C291.436157,511.182922 290.748993,512.336060 290.000000,513.000000 
	C268.312439,513.000000 246.624878,513.000000 224.666168,512.605286 
	C223.553238,511.810333 222.747971,511.193024 221.863892,511.044373 
	C215.100861,509.907227 208.221085,509.289307 201.566666,507.712128 
	C174.452393,501.285797 148.682526,491.476562 124.731514,476.994965 
	C97.500938,460.530426 74.156227,439.641815 54.549873,414.767365 
	C41.814983,398.610657 31.159492,381.034668 22.898663,362.013611 
	C13.029468,339.289215 5.792863,315.928741 2.919801,291.270721 
	C2.824216,290.450378 1.663969,289.754120 0.999999,289.000000 
	C1.000000,268.312439 1.000000,247.624878 1.400614,226.658524 
	C2.178114,225.868866 2.794879,225.401337 2.896189,224.840668 
	C4.636106,215.212158 5.927507,205.485382 8.076971,195.951431 
	C13.831901,170.425446 23.908047,146.466812 37.613594,124.341164 
	C46.359241,110.222549 57.248383,97.414444 67.417625,84.204399 
	C70.917694,79.657730 76.358719,79.745193 80.879189,84.017670 
	C84.295029,88.777657 83.679771,92.730118 79.975861,96.748482 
	C75.845558,101.229462 71.897240,105.910187 68.212372,110.764091 
	C53.626072,129.977951 41.865528,150.749359 33.297966,173.375549 
	C24.127239,197.594650 19.473480,222.681274 18.228325,248.411819 
	C17.797462,257.315430 18.728043,266.286499 19.068741,275.225494 
	C19.743107,292.919098 23.551359,310.030640 28.556927,326.940430 
	C34.095673,345.651398 42.650200,363.008209 52.108528,380.356689 
	C65.724266,404.120392 83.409142,424.086090 104.067986,441.293854 
	C124.335243,458.175507 146.829315,471.488342 171.604965,480.942322 
	C197.454514,490.806030 224.193436,496.040039 251.729660,496.862061 
	C262.456635,497.182312 273.260315,496.000671 283.987366,495.038361 
	C310.562225,492.654297 335.804230,485.058380 359.709564,473.532074 
	C389.175751,459.324554 414.892151,440.013214 436.522583,415.201447 
	C452.149689,397.275940 465.155609,377.815491 474.941559,356.186768 
	C490.725739,321.300903 498.215729,284.883514 496.173157,246.449234 
	C495.226166,228.630585 492.775238,211.213638 488.245789,193.975327 
	C477.960571,154.831482 458.136383,121.056252 430.293976,92.070541 
	C420.459717,81.832458 409.065521,73.028831 397.941772,64.122017 
	C392.881531,60.070282 386.747192,57.360016 380.932526,53.733490 
	C369.941193,47.883575 359.338013,41.847164 348.249298,36.898678 
	C322.446472,25.383860 295.138947,19.717457 267.031281,18.200806 
	C248.983826,17.226990 231.007217,18.628721 213.203476,22.039761 
	C187.476273,26.968866 163.167084,35.655643 140.503479,48.862328 
	C138.372070,50.104347 135.996689,50.929192 133.872269,52.181343 
	C128.446777,55.379158 125.022865,51.178555 121.039467,48.456039 
	C120.807007,43.508713 120.850052,39.465031 125.723312,36.662628 
	C153.623154,20.618593 183.013351,8.801822 214.998779,3.913483 
	C217.750015,3.493015 220.336823,1.996606 223.000000,1.000001 
	C244.687561,1.000000 266.375122,1.000000 288.333832,1.394719 
	C289.114258,2.169703 289.578461,2.787904 290.139648,2.894227 
	C297.503754,4.289454 304.909424,5.476357 312.251129,6.977359 
	C341.977539,13.054894 369.269012,25.064939 394.772614,41.287357 
	C417.814606,55.943996 438.055115,73.758987 455.470490,94.864372 
	C466.330872,108.025833 476.046234,121.933960 483.921783,137.014557 
	C498.071411,164.109238 507.825012,192.670410 511.092834,223.244659 
	C511.161835,223.890350 512.339539,224.417526 513.000000,225.000000 
z"/>
<path fill="#000000" opacity="1.000000" stroke="none" 
	d="
M222.531342,1.000001 
	C220.336823,1.996606 217.750015,3.493015 214.998779,3.913483 
	C183.013351,8.801822 153.623154,20.618593 125.723312,36.662628 
	C120.850052,39.465031 120.807007,43.508713 120.857941,48.747074 
	C114.762756,54.004772 108.580391,58.260735 102.940521,63.143337 
	C95.311394,69.748108 88.098724,76.833916 80.707382,83.713348 
	C76.358719,79.745193 70.917694,79.657730 67.417625,84.204399 
	C57.248383,97.414444 46.359241,110.222549 37.613594,124.341164 
	C23.908047,146.466812 13.831901,170.425446 8.076971,195.951431 
	C5.927507,205.485382 4.636106,215.212158 2.896189,224.840668 
	C2.794879,225.401337 2.178114,225.868866 1.400614,226.189865 
	C1.000000,151.073441 1.000000,76.146896 1.000000,1.000000 
	C74.687416,1.000000 148.375046,1.000000 222.531342,1.000001 
z"/>
<path fill="#000000" opacity="1.000000" stroke="none" 
	d="
M513.000000,224.531342 
	C512.339539,224.417526 511.161835,223.890350 511.092834,223.244659 
	C507.825012,192.670410 498.071411,164.109238 483.921783,137.014557 
	C476.046234,121.933960 466.330872,108.025833 455.470490,94.864372 
	C438.055115,73.758987 417.814606,55.943996 394.772614,41.287357 
	C369.269012,25.064939 341.977539,13.054894 312.251129,6.977359 
	C304.909424,5.476357 297.503754,4.289454 290.139648,2.894227 
	C289.578461,2.787904 289.114258,2.169703 288.802490,1.394719 
	C363.593719,1.000000 438.187408,1.000000 513.000000,1.000000 
	C513.000000,75.354088 513.000000,149.708389 513.000000,224.531342 
z"/>
<path fill="#000000" opacity="1.000000" stroke="none" 
	d="
M290.468689,513.000000 
	C290.748993,512.336060 291.436157,511.182922 292.255981,511.079254 
	C315.709747,508.114410 338.052002,501.403198 359.780579,492.143127 
	C379.617737,483.689117 397.950134,472.702362 414.763000,459.455353 
	C439.642120,439.852844 460.611969,416.553589 476.969177,389.256805 
	C490.478821,366.711975 500.389709,342.702637 506.352936,317.125641 
	C508.349060,308.564117 509.461121,299.797516 511.041901,291.136444 
	C511.203491,290.251038 511.810272,289.446899 512.605225,288.802521 
	C513.000000,363.593536 513.000000,438.187042 513.000000,513.000000 
	C438.979248,513.000000 364.958282,513.000000 290.468689,513.000000 
z"/>
<path fill="#000000" opacity="1.000000" stroke="none" 
	d="
M0.999999,289.468658 
	C1.663969,289.754120 2.824216,290.450378 2.919801,291.270721 
	C5.792863,315.928741 13.029468,339.289215 22.898663,362.013611 
	C31.159492,381.034668 41.814983,398.610657 54.549873,414.767365 
	C74.156227,439.641815 97.500938,460.530426 124.731514,476.994965 
	C148.682526,491.476562 174.452393,501.285797 201.566666,507.712128 
	C208.221085,509.289307 215.100861,509.907227 221.863892,511.044373 
	C222.747971,511.193024 223.553238,511.810333 224.197510,512.605286 
	C149.739471,513.000000 75.478943,513.000000 1.000000,513.000000 
	C1.000000,438.645905 1.000000,364.291626 0.999999,289.468658 
z"/>
<path fill="#00FFE5" opacity="1.000000" stroke="none" 
	d="
M381.100067,54.041267 
	C386.747192,57.360016 392.881531,60.070282 397.941772,64.122017 
	C409.065521,73.028831 420.459717,81.832458 430.293976,92.070541 
	C458.136383,121.056252 477.960571,154.831482 488.245789,193.975327 
	C492.775238,211.213638 495.226166,228.630585 496.173157,246.449234 
	C498.215729,284.883514 490.725739,321.300903 474.941559,356.186768 
	C465.155609,377.815491 452.149689,397.275940 436.522583,415.201447 
	C414.892151,440.013214 389.175751,459.324554 359.709564,473.532074 
	C335.804230,485.058380 310.562225,492.654297 283.987366,495.038361 
	C273.260315,496.000671 262.456635,497.182312 251.729660,496.862061 
	C224.193436,496.040039 197.454514,490.806030 171.604965,480.942322 
	C146.829315,471.488342 124.335243,458.175507 104.067986,441.293854 
	C83.409142,424.086090 65.724266,404.120392 52.563633,380.355469 
	C54.074070,379.993744 55.235806,379.953979 56.397835,379.941010 
	C67.966705,379.811768 78.034042,375.001648 81.390282,363.049652 
	C82.246140,360.001862 83.013161,356.929138 84.130501,354.031830 
	C85.058990,354.963745 85.716667,355.703888 86.291168,356.503784 
	C95.236031,368.958130 111.027039,370.193146 121.609940,362.369598 
	C127.971222,357.666901 133.155029,351.352386 138.769363,345.664856 
	C142.728333,341.654297 143.019455,336.419708 139.663879,333.288605 
	C136.320953,330.169312 131.922455,330.680389 127.783829,334.757721 
	C123.275307,339.199493 118.916992,343.797699 114.320938,348.145660 
	C108.434441,353.714355 102.293297,353.437256 98.793526,346.271118 
	C92.623116,333.636475 87.446487,320.505157 82.227524,307.432556 
	C81.621513,305.914612 82.804390,302.890930 84.137970,301.515717 
	C94.572212,290.755737 105.294769,280.275879 115.789810,269.573730 
	C117.257942,268.076599 117.972137,265.840149 119.055038,263.910858 
	C121.726234,266.346039 122.611214,267.090912 123.426575,267.905426 
	C136.270721,280.735870 149.076050,293.605347 161.956131,306.399597 
	C168.090775,312.493347 172.017242,312.444885 178.037201,306.433594 
	C188.055206,296.430115 197.692932,286.008698 208.166870,276.508606 
	C220.341690,265.465790 218.651459,247.736481 208.257660,237.621658 
	C187.728897,217.643814 167.646545,197.206711 147.440674,176.898743 
	C145.986496,175.437225 145.027863,173.482651 144.014862,171.478485 
	C153.382294,162.076263 162.573700,152.952927 172.133194,143.830719 
	C174.154175,145.199585 175.929062,146.445053 177.441605,147.953537 
	C197.973602,168.430557 218.461044,188.952255 238.977249,209.445129 
	C249.210831,219.667053 264.841461,219.608170 275.140778,209.329056 
	C285.639038,198.851425 296.127808,188.364258 306.603821,177.864380 
	C312.190826,172.264633 312.184296,168.724747 306.574402,163.105652 
	C293.857880,150.368256 281.116913,137.655289 268.406433,124.911896 
	C267.172760,123.675003 266.082520,122.295021 265.062500,121.136826 
	C265.550995,120.291107 265.666504,119.954994 265.890533,119.724297 
	C268.211670,117.334015 270.585480,114.994026 272.876343,112.575371 
	C276.901459,108.325699 277.188782,103.713783 273.709290,100.250809 
	C270.236664,96.794655 265.551361,97.014801 261.418640,101.196114 
	C258.761414,103.884605 256.507263,106.971474 255.020569,108.747292 
	C244.129929,97.837791 234.370026,88.060997 224.753021,78.427338 
	C224.574982,78.489487 225.303497,78.133865 226.072281,77.981712 
	C242.977798,74.635674 260.025513,73.994919 277.092438,76.111481 
	C300.725616,79.042366 323.139160,85.994797 344.076904,97.504677 
	C352.977570,102.397530 353.969269,108.265099 346.819550,115.666687 
	C341.609985,121.059769 336.218658,126.276863 330.936768,131.600632 
	C326.465698,136.107147 325.960876,140.259705 329.392700,143.768341 
	C332.601257,147.048706 337.722931,146.659958 341.781067,142.665466 
	C348.075684,136.469604 354.353699,130.254028 360.516144,123.927368 
	C370.203644,113.981659 368.805786,95.963577 357.825836,87.491890 
	C356.408600,86.398430 355.183014,85.056602 354.110779,83.488678 
	C363.140594,83.157288 370.905640,80.586540 375.842560,72.944260 
	C379.477448,67.317535 381.495483,60.938843 381.100067,54.041267 
M247.486725,417.986664 
	C251.577774,413.627533 255.668839,409.268372 259.986481,404.667786 
	C262.003510,406.591797 263.334229,407.811615 264.610291,409.086182 
	C275.097626,419.561157 285.653931,429.968781 296.025208,440.557587 
	C302.119354,446.779602 308.449127,449.681519 317.200531,445.524963 
	C328.283997,440.260742 339.956726,436.226685 350.986877,430.863251 
	C369.661926,421.782410 372.591736,402.127014 357.888367,387.418060 
	C330.925049,360.444641 303.954315,333.478607 276.984619,306.511566 
	C264.434265,293.962463 249.645081,293.907837 237.103333,306.433502 
	C209.882019,333.619995 182.678085,360.823883 155.491226,388.044830 
	C142.021957,401.531006 144.458435,420.744568 161.113266,429.944489 
	C190.133392,445.974854 221.478287,453.654663 254.478119,454.936554 
	C260.065033,455.153564 264.820465,451.334259 264.875916,446.987366 
	C264.940369,441.937164 261.498322,439.255219 254.932343,439.002014 
	C248.470673,438.752838 242.006042,438.449463 235.563690,437.916412 
	C233.818878,437.772064 232.150040,436.709686 229.419876,435.682495 
	C235.836914,429.400940 241.411789,423.943787 247.486725,417.986664 
M322.513062,221.012985 
	C316.619812,226.906494 310.691162,232.765137 304.841095,238.701157 
	C294.381439,249.314392 294.382965,264.848297 304.817596,275.287323 
	C332.976318,303.458038 361.134430,331.629364 389.319611,359.773621 
	C394.393036,364.839722 400.522369,367.331238 407.775146,366.989807 
	C412.321716,366.775787 414.234436,363.871582 414.852966,359.978668 
	C415.413666,356.449799 412.142059,353.134949 408.798157,351.943665 
	C405.034790,350.602936 400.856293,349.115784 398.117035,346.415466 
	C371.413605,320.091797 344.967804,293.506744 318.475586,266.969177 
	C317.077942,265.569153 315.776337,264.024323 314.683380,262.378632 
	C311.872467,258.146057 312.248657,254.315948 315.716888,250.771240 
	C318.747040,247.674225 321.843628,244.642349 324.897705,241.568634 
	C331.093475,235.333023 337.280304,229.088593 343.831055,222.484650 
	C356.448975,235.061005 368.601440,247.111679 380.595001,259.318420 
	C381.166321,259.899902 380.802917,262.291077 380.064789,263.104187 
	C377.643951,265.771118 374.822479,268.070526 372.203796,270.562500 
	C367.396576,275.137146 366.811890,280.320679 370.625702,284.118378 
	C373.916565,287.395386 378.815552,286.731445 383.298431,282.116669 
	C386.536530,278.783325 389.506622,275.189697 392.800659,271.482056 
	C395.022125,273.607727 396.352325,274.834045 397.631256,276.111633 
	C409.421600,287.890076 421.230225,299.650482 432.966461,311.482635 
	C435.628479,314.166382 438.542511,315.685730 442.352356,314.667480 
	C446.166718,313.647949 447.356110,310.550323 447.944244,307.149170 
	C449.693237,297.035156 452.307861,286.957336 452.843689,276.773804 
	C453.635345,261.728210 453.969025,246.507812 452.590240,231.537567 
	C450.928558,213.495392 445.679504,196.048157 438.515015,179.340088 
	C435.378967,172.026672 431.860870,164.814651 427.828339,157.961380 
	C420.074188,144.783356 400.369598,143.255676 388.787750,154.773880 
	C366.808533,176.632278 344.932190,198.594147 322.513062,221.012985 
z"/>
<path fill="#020C19" opacity="1.000000" stroke="none" 
	d="
M380.932526,53.733494 
	C381.495483,60.938843 379.477448,67.317535 375.842560,72.944260 
	C370.905640,80.586540 363.140594,83.157288 353.760437,83.495865 
	C340.669891,78.524879 328.382599,72.617744 315.618042,68.041992 
	C301.180237,62.866417 286.010254,61.001400 270.678864,59.622913 
	C253.501297,58.078430 236.697800,59.718216 219.913269,62.496708 
	C203.811920,65.162109 188.372375,70.389030 173.635468,77.259987 
	C165.963837,80.836815 157.981903,84.991638 152.084595,90.844589 
	C142.797165,100.062164 144.396957,115.603821 154.022736,125.604797 
	C159.902023,131.713257 165.848709,137.756851 171.765121,143.829590 
	C162.573700,152.952927 153.382294,162.076263 143.714340,171.368027 
	C136.425247,165.077209 129.616791,158.613632 122.798897,152.160049 
	C116.861717,146.540131 105.517899,145.031326 97.886551,147.804611 
	C88.879074,151.078003 84.875595,158.444473 80.859917,166.103394 
	C67.832298,190.950363 61.176010,217.606445 59.058792,245.382492 
	C57.834946,261.438232 59.288063,277.504669 62.154236,293.346832 
	C66.015640,314.690002 73.456543,334.818878 83.820999,353.867859 
	C83.013161,356.929138 82.246140,360.001862 81.390282,363.049652 
	C78.034042,375.001648 67.966705,379.811768 56.397835,379.941010 
	C55.235806,379.953979 54.074070,379.993744 52.457092,380.022278 
	C42.650200,363.008209 34.095673,345.651398 28.556927,326.940430 
	C23.551359,310.030640 19.743107,292.919098 19.068741,275.225494 
	C18.728043,266.286499 17.797462,257.315430 18.228325,248.411819 
	C19.473480,222.681274 24.127239,197.594650 33.297966,173.375549 
	C41.865528,150.749359 53.626072,129.977951 68.212372,110.764091 
	C71.897240,105.910187 75.845558,101.229462 79.975861,96.748482 
	C83.679771,92.730118 84.295029,88.777657 80.879189,84.017670 
	C88.098724,76.833916 95.311394,69.748108 102.940521,63.143337 
	C108.580391,58.260735 114.762756,54.004772 120.884964,49.178596 
	C125.022865,51.178555 128.446777,55.379158 133.872269,52.181343 
	C135.996689,50.929192 138.372070,50.104347 140.503479,48.862328 
	C163.167084,35.655643 187.476273,26.968866 213.203476,22.039761 
	C231.007217,18.628721 248.983826,17.226990 267.031281,18.200806 
	C295.138947,19.717457 322.446472,25.383860 348.249298,36.898678 
	C359.338013,41.847164 369.941193,47.883575 380.932526,53.733494 
z"/>
<path fill="#05B9A7" opacity="1.000000" stroke="none" 
	d="
M247.236694,418.236633 
	C241.411789,423.943787 235.836914,429.400940 229.419876,435.682495 
	C232.150040,436.709686 233.818878,437.772064 235.563690,437.916412 
	C242.006042,438.449463 248.470673,438.752838 254.932343,439.002014 
	C261.498322,439.255219 264.940369,441.937164 264.875916,446.987366 
	C264.820465,451.334259 260.065033,455.153564 254.478119,454.936554 
	C221.478287,453.654663 190.133392,445.974854 161.113266,429.944489 
	C144.458435,420.744568 142.021957,401.531006 155.491226,388.044830 
	C182.678085,360.823883 209.882019,333.619995 237.103333,306.433502 
	C249.645081,293.907837 264.434265,293.962463 276.984619,306.511566 
	C303.954315,333.478607 330.925049,360.444641 357.888367,387.418060 
	C372.591736,402.127014 369.661926,421.782410 350.986877,430.863251 
	C339.956726,436.226685 328.283997,440.260742 317.200531,445.524963 
	C308.449127,449.681519 302.119354,446.779602 296.025208,440.557587 
	C285.653931,429.968781 275.097626,419.561157 264.610291,409.086182 
	C263.334229,407.811615 262.003510,406.591797 259.986481,404.667786 
	C255.668839,409.268372 251.577774,413.627533 247.236694,418.236633 
M225.103333,341.454254 
	C223.050354,342.850525 223.396942,344.027710 225.100479,345.631073 
	C229.221237,349.509491 233.156189,353.585876 237.151962,357.596497 
	C244.994064,365.467804 252.826614,373.348602 260.609222,381.171295 
	C272.050446,372.158875 274.458405,371.514099 278.662628,376.096741 
	C282.881439,380.695251 281.885010,383.945435 273.195435,393.626129 
	C284.715118,405.146088 296.179413,416.740723 307.873413,428.098846 
	C309.012787,429.205475 311.896637,429.661530 313.415558,429.047089 
	C323.702942,424.885712 334.028198,420.734436 343.970764,415.829132 
	C352.630157,411.556854 353.257050,405.860077 346.535889,399.125610 
	C319.363525,371.899506 292.158752,344.705658 264.940979,317.524933 
	C259.111115,311.702972 254.850647,311.765442 248.914719,317.668762 
	C241.122253,325.418396 233.371643,333.210083 225.103333,341.454254 
M196.037796,370.537811 
	C186.382980,380.194946 176.673386,389.798157 167.093307,399.528900 
	C161.095337,405.621185 161.283630,411.398163 168.800705,415.077362 
	C181.397507,421.242737 194.529053,426.332947 207.559052,431.568207 
	C208.816818,432.073547 211.334488,430.846924 212.594345,429.690887 
	C217.130035,425.529114 221.373505,421.049225 225.734528,416.696686 
	C233.446915,408.999268 241.164490,401.307037 248.201019,394.289673 
	C235.366989,381.449615 222.928162,369.004944 209.949966,356.020660 
	C205.715820,360.445801 201.126816,365.241791 196.037796,370.537811 
z"/>
<path fill="#05B9A7" opacity="1.000000" stroke="none" 
	d="
M84.130501,354.031830 
	C73.456543,334.818878 66.015640,314.690002 62.154236,293.346832 
	C59.288063,277.504669 57.834946,261.438232 59.058792,245.382492 
	C61.176010,217.606445 67.832298,190.950363 80.859917,166.103394 
	C84.875595,158.444473 88.879074,151.078003 97.886551,147.804611 
	C105.517899,145.031326 116.861717,146.540131 122.798897,152.160049 
	C129.616791,158.613632 136.425247,165.077209 143.538300,171.646881 
	C145.027863,173.482651 145.986496,175.437225 147.440674,176.898743 
	C167.646545,197.206711 187.728897,217.643814 208.257660,237.621658 
	C218.651459,247.736481 220.341690,265.465790 208.166870,276.508606 
	C197.692932,286.008698 188.055206,296.430115 178.037201,306.433594 
	C172.017242,312.444885 168.090775,312.493347 161.956131,306.399597 
	C149.076050,293.605347 136.270721,280.735870 123.426575,267.905426 
	C122.611214,267.090912 121.726234,266.346039 119.055038,263.910858 
	C117.972137,265.840149 117.257942,268.076599 115.789810,269.573730 
	C105.294769,280.275879 94.572212,290.755737 84.137970,301.515717 
	C82.804390,302.890930 81.621513,305.914612 82.227524,307.432556 
	C87.446487,320.505157 92.623116,333.636475 98.793526,346.271118 
	C102.293297,353.437256 108.434441,353.714355 114.320938,348.145660 
	C118.916992,343.797699 123.275307,339.199493 127.783829,334.757721 
	C131.922455,330.680389 136.320953,330.169312 139.663879,333.288605 
	C143.019455,336.419708 142.728333,341.654297 138.769363,345.664856 
	C133.155029,351.352386 127.971222,357.666901 121.609940,362.369598 
	C111.027039,370.193146 95.236031,368.958130 86.291168,356.503784 
	C85.716667,355.703888 85.058990,354.963745 84.130501,354.031830 
M99.623779,244.270767 
	C92.918709,237.577133 86.213638,230.883499 78.750664,223.433258 
	C75.225624,244.295654 75.166451,263.817719 77.609154,283.887421 
	C82.425850,279.285858 86.699944,275.202637 91.353912,270.560760 
	C97.164215,265.029694 102.974525,259.498627 109.231224,253.542618 
	C105.806778,250.380936 102.825592,247.628510 99.623779,244.270767 
M107.015381,227.534027 
	C111.319145,232.305252 115.622902,237.076462 121.186401,243.244247 
	C123.340599,240.347900 124.812958,237.879349 126.752861,235.859924 
	C131.050507,231.386108 135.902588,230.826767 139.455994,234.072891 
	C143.013168,237.322449 142.801361,242.292892 138.459778,246.876846 
	C136.434525,249.015198 133.748657,250.527908 132.143051,251.736450 
	C145.906998,265.588409 158.510208,278.272217 171.355759,291.199890 
	C179.808731,282.737396 188.652435,273.945953 197.422394,265.081543 
	C203.083282,259.359711 203.028519,255.506104 197.353989,249.828262 
	C177.231445,229.693817 157.104645,209.563629 136.958313,189.453003 
	C135.673676,188.170654 134.209625,187.068039 132.618088,185.273758 
	C126.502159,179.140869 120.463036,172.928802 114.247223,166.898865 
	C108.765442,161.581024 102.219009,161.723892 99.304131,167.739746 
	C94.018707,178.648041 89.368408,189.869659 84.698143,201.062775 
	C84.160767,202.350693 84.610466,204.848999 85.574860,205.837173 
	C92.537369,212.971436 99.750420,219.861191 107.015381,227.534027 
z"/>
<path fill="#05B9A7" opacity="1.000000" stroke="none" 
	d="
M172.133194,143.830719 
	C165.848709,137.756851 159.902023,131.713257 154.022736,125.604797 
	C144.396957,115.603821 142.797165,100.062164 152.084595,90.844589 
	C157.981903,84.991638 165.963837,80.836815 173.635468,77.259987 
	C188.372375,70.389030 203.811920,65.162109 219.913269,62.496708 
	C236.697800,59.718216 253.501297,58.078430 270.678864,59.622913 
	C286.010254,61.001400 301.180237,62.866417 315.618042,68.041992 
	C328.382599,72.617744 340.669891,78.524879 353.518280,83.837021 
	C355.183014,85.056602 356.408600,86.398430 357.825836,87.491890 
	C368.805786,95.963577 370.203644,113.981659 360.516144,123.927368 
	C354.353699,130.254028 348.075684,136.469604 341.781067,142.665466 
	C337.722931,146.659958 332.601257,147.048706 329.392700,143.768341 
	C325.960876,140.259705 326.465698,136.107147 330.936768,131.600632 
	C336.218658,126.276863 341.609985,121.059769 346.819550,115.666687 
	C353.969269,108.265099 352.977570,102.397530 344.076904,97.504677 
	C323.139160,85.994797 300.725616,79.042366 277.092438,76.111481 
	C260.025513,73.994919 242.977798,74.635674 226.072281,77.981712 
	C225.303497,78.133865 224.574982,78.489487 224.753021,78.427338 
	C234.370026,88.060997 244.129929,97.837791 255.020569,108.747292 
	C256.507263,106.971474 258.761414,103.884605 261.418640,101.196114 
	C265.551361,97.014801 270.236664,96.794655 273.709290,100.250809 
	C277.188782,103.713783 276.901459,108.325699 272.876343,112.575371 
	C270.585480,114.994026 268.211670,117.334015 265.890533,119.724297 
	C265.666504,119.954994 265.550995,120.291107 265.062500,121.136826 
	C266.082520,122.295021 267.172760,123.675003 268.406433,124.911896 
	C281.116913,137.655289 293.857880,150.368256 306.574402,163.105652 
	C312.184296,168.724747 312.190826,172.264633 306.603821,177.864380 
	C296.127808,188.364258 285.639038,198.851425 275.140778,209.329056 
	C264.841461,219.608170 249.210831,219.667053 238.977249,209.445129 
	C218.461044,188.952255 197.973602,168.430557 177.441605,147.953537 
	C175.929062,146.445053 174.154175,145.199585 172.133194,143.830719 
M185.840576,133.522324 
	C192.742554,140.802414 199.644547,148.082489 206.305054,155.107895 
	C218.369568,143.011978 229.719513,131.632507 241.724655,119.596130 
	C236.941666,115.509842 231.864777,111.172462 226.567871,106.238289 
	C219.868835,99.512650 213.236359,92.717896 206.399368,86.135551 
	C205.368073,85.142685 203.056976,84.333694 201.889526,84.805290 
	C190.501556,89.405449 179.115417,94.046867 167.975693,99.209389 
	C162.411285,101.788124 161.199860,108.325401 165.220673,112.504898 
	C171.901367,119.449257 178.943130,126.046303 185.840576,133.522324 
M284.012146,178.513992 
	C286.822174,176.180771 289.632233,173.847565 291.705658,172.125977 
	C278.115662,158.435776 265.507690,145.734863 253.616470,133.755997 
	C242.532181,144.726822 231.095993,156.045959 219.449371,167.573395 
	C219.995880,168.218262 220.772308,169.274063 221.686996,170.192108 
	C230.742477,179.280655 239.788452,188.379089 248.904312,197.406891 
	C254.849503,203.294662 259.148651,203.273132 265.122925,197.383377 
	C271.292847,191.300751 277.385864,185.140137 284.012146,178.513992 
z"/>
<path fill="#05B9A7" opacity="1.000000" stroke="none" 
	d="
M322.763092,220.763016 
	C344.932190,198.594147 366.808533,176.632278 388.787750,154.773880 
	C400.369598,143.255676 420.074188,144.783356 427.828339,157.961380 
	C431.860870,164.814651 435.378967,172.026672 438.515015,179.340088 
	C445.679504,196.048157 450.928558,213.495392 452.590240,231.537567 
	C453.969025,246.507812 453.635345,261.728210 452.843689,276.773804 
	C452.307861,286.957336 449.693237,297.035156 447.944244,307.149170 
	C447.356110,310.550323 446.166718,313.647949 442.352356,314.667480 
	C438.542511,315.685730 435.628479,314.166382 432.966461,311.482635 
	C421.230225,299.650482 409.421600,287.890076 397.631256,276.111633 
	C396.352325,274.834045 395.022125,273.607727 392.800659,271.482056 
	C389.506622,275.189697 386.536530,278.783325 383.298431,282.116669 
	C378.815552,286.731445 373.916565,287.395386 370.625702,284.118378 
	C366.811890,280.320679 367.396576,275.137146 372.203796,270.562500 
	C374.822479,268.070526 377.643951,265.771118 380.064789,263.104187 
	C380.802917,262.291077 381.166321,259.899902 380.595001,259.318420 
	C368.601440,247.111679 356.448975,235.061005 343.831055,222.484650 
	C337.280304,229.088593 331.093475,235.333023 324.897705,241.568634 
	C321.843628,244.642349 318.747040,247.674225 315.716888,250.771240 
	C312.248657,254.315948 311.872467,258.146057 314.683380,262.378632 
	C315.776337,264.024323 317.077942,265.569153 318.475586,266.969177 
	C344.967804,293.506744 371.413605,320.091797 398.117035,346.415466 
	C400.856293,349.115784 405.034790,350.602936 408.798157,351.943665 
	C412.142059,353.134949 415.413666,356.449799 414.852966,359.978668 
	C414.234436,363.871582 412.321716,366.775787 407.775146,366.989807 
	C400.522369,367.331238 394.393036,364.839722 389.319611,359.773621 
	C361.134430,331.629364 332.976318,303.458038 304.817596,275.287323 
	C294.382965,264.848297 294.381439,249.314392 304.841095,238.701157 
	C310.691162,232.765137 316.619812,226.906494 322.763092,220.763016 
M430.939575,206.389404 
	C425.954346,194.315414 420.852844,182.287628 416.027557,170.150055 
	C413.143585,162.895676 405.851105,160.540375 399.216248,167.314194 
	C390.950592,175.753006 382.537079,184.047104 374.177795,192.394058 
	C368.080109,198.482742 361.966919,204.555878 356.163849,210.334045 
	C368.987457,223.197739 381.479126,235.728516 394.100739,248.389587 
	C405.913239,236.553650 418.066895,224.476135 430.026855,212.209747 
	C431.028717,211.182220 430.726868,208.883606 430.939575,206.389404 
M435.923157,287.633392 
	C436.598633,273.622528 437.460419,259.616821 437.845184,245.597961 
	C437.974030,240.902756 436.885895,236.174133 436.389771,231.777237 
	C426.204224,241.958832 416.389282,251.769958 406.348846,261.806488 
	C414.886322,270.336029 423.786560,279.279266 432.798462,288.108521 
	C433.358826,288.657532 434.796265,288.311340 435.923157,287.633392 
z"/>
<path fill="#020C19" opacity="1.000000" stroke="none" 
	d="
M225.353180,341.218994 
	C233.371643,333.210083 241.122253,325.418396 248.914719,317.668762 
	C254.850647,311.765442 259.111115,311.702972 264.940979,317.524933 
	C292.158752,344.705658 319.363525,371.899506 346.535889,399.125610 
	C353.257050,405.860077 352.630157,411.556854 343.970764,415.829132 
	C334.028198,420.734436 323.702942,424.885712 313.415558,429.047089 
	C311.896637,429.661530 309.012787,429.205475 307.873413,428.098846 
	C296.179413,416.740723 284.715118,405.146088 273.195435,393.626129 
	C281.885010,383.945435 282.881439,380.695251 278.662628,376.096741 
	C274.458405,371.514099 272.050446,372.158875 260.609222,381.171295 
	C252.826614,373.348602 244.994064,365.467804 237.151962,357.596497 
	C233.156189,353.585876 229.221237,349.509491 225.100479,345.631073 
	C223.396942,344.027710 223.050354,342.850525 225.353180,341.218994 
z"/>
<path fill="#020C19" opacity="1.000000" stroke="none" 
	d="
M196.287811,370.287811 
	C201.126816,365.241791 205.715820,360.445801 209.949966,356.020660 
	C222.928162,369.004944 235.366989,381.449615 248.201019,394.289673 
	C241.164490,401.307037 233.446915,408.999268 225.734528,416.696686 
	C221.373505,421.049225 217.130035,425.529114 212.594345,429.690887 
	C211.334488,430.846924 208.816818,432.073547 207.559052,431.568207 
	C194.529053,426.332947 181.397507,421.242737 168.800705,415.077362 
	C161.283630,411.398163 161.095337,405.621185 167.093307,399.528900 
	C176.673386,389.798157 186.382980,380.194946 196.287811,370.287811 
z"/>
<path fill="#00FFE5" opacity="1.000000" stroke="none" 
	d="
M132.829025,185.881805 
	C134.209625,187.068039 135.673676,188.170654 136.958313,189.453003 
	C157.104645,209.563629 177.231445,229.693817 197.353989,249.828262 
	C203.028519,255.506104 203.083282,259.359711 197.422394,265.081543 
	C188.652435,273.945953 179.808731,282.737396 171.355759,291.199890 
	C158.510208,278.272217 145.906998,265.588409 132.143051,251.736450 
	C133.748657,250.527908 136.434525,249.015198 138.459778,246.876846 
	C142.801361,242.292892 143.013168,237.322449 139.455994,234.072891 
	C135.902588,230.826767 131.050507,231.386108 126.752861,235.859924 
	C124.812958,237.879349 123.340599,240.347900 121.186401,243.244247 
	C115.622902,237.076462 111.319145,232.305252 107.112373,226.869446 
	C109.975945,221.102386 112.426575,215.794601 115.578880,210.942719 
	C121.102074,202.441696 127.055710,194.220337 132.829025,185.881805 
z"/>
<path fill="#020D19" opacity="1.000000" stroke="none" 
	d="
M132.723557,185.577789 
	C127.055710,194.220337 121.102074,202.441696 115.578880,210.942719 
	C112.426575,215.794601 109.975945,221.102386 107.046722,226.516647 
	C99.750420,219.861191 92.537369,212.971436 85.574860,205.837173 
	C84.610466,204.848999 84.160767,202.350693 84.698143,201.062775 
	C89.368408,189.869659 94.018707,178.648041 99.304131,167.739746 
	C102.219009,161.723892 108.765442,161.581024 114.247223,166.898865 
	C120.463036,172.928802 126.502159,179.140869 132.723557,185.577789 
z"/>
<path fill="#020E1B" opacity="1.000000" stroke="none" 
	d="
M90.974045,271.119446 
	C86.699944,275.202637 82.425850,279.285858 77.609154,283.887421 
	C75.166451,263.817719 75.225624,244.295654 78.750664,223.433258 
	C86.213638,230.883499 92.918709,237.577133 99.419846,244.739990 
	C96.794701,251.517731 94.248764,257.782654 92.021194,264.158813 
	C91.260803,266.335327 91.300125,268.791199 90.974045,271.119446 
z"/>
<path fill="#00FFE5" opacity="1.000000" stroke="none" 
	d="
M91.163979,270.840088 
	C91.300125,268.791199 91.260803,266.335327 92.021194,264.158813 
	C94.248764,257.782654 96.794701,251.517731 99.530167,245.042648 
	C102.825592,247.628510 105.806778,250.380936 109.231224,253.542618 
	C102.974525,259.498627 97.164215,265.029694 91.163979,270.840088 
z"/>
<path fill="#00FFE5" opacity="1.000000" stroke="none" 
	d="
M283.762329,178.763809 
	C277.385864,185.140137 271.292847,191.300751 265.122925,197.383377 
	C259.148651,203.273132 254.849503,203.294662 248.904312,197.406891 
	C239.788452,188.379089 230.742477,179.280655 221.686996,170.192108 
	C220.772308,169.274063 219.995880,168.218262 219.449371,167.573395 
	C231.095993,156.045959 242.532181,144.726822 253.616470,133.755997 
	C265.507690,145.734863 278.115662,158.435776 291.705658,172.125977 
	C289.632233,173.847565 286.822174,176.180771 283.762329,178.763809 
z"/>
<path fill="#020D19" opacity="1.000000" stroke="none" 
	d="
M185.832809,132.789627 
	C178.943130,126.046303 171.901367,119.449257 165.220673,112.504898 
	C161.199860,108.325401 162.411285,101.788124 167.975693,99.209389 
	C179.115417,94.046867 190.501556,89.405449 201.889526,84.805290 
	C203.056976,84.333694 205.368073,85.142685 206.399368,86.135551 
	C213.236359,92.717896 219.868835,99.512650 226.382263,106.725533 
	C220.758118,110.315392 215.176117,113.194496 209.914276,116.572357 
	C201.772247,121.799171 193.848892,127.366623 185.832809,132.789627 
z"/>
<path fill="#00FFE5" opacity="1.000000" stroke="none" 
	d="
M185.836700,133.155975 
	C193.848892,127.366623 201.772247,121.799171 209.914276,116.572357 
	C215.176117,113.194496 220.758118,110.315392 226.492264,107.023926 
	C231.864777,111.172462 236.941666,115.509842 241.724655,119.596130 
	C229.719513,131.632507 218.369568,143.011978 206.305054,155.107895 
	C199.644547,148.082489 192.742554,140.802414 185.836700,133.155975 
z"/>
<path fill="#020C19" opacity="1.000000" stroke="none" 
	d="
M430.985138,206.782471 
	C430.726868,208.883606 431.028717,211.182220 430.026855,212.209747 
	C418.066895,224.476135 405.913239,236.553650 394.100739,248.389587 
	C381.479126,235.728516 368.987457,223.197739 356.163849,210.334045 
	C361.966919,204.555878 368.080109,198.482742 374.177795,192.394058 
	C382.537079,184.047104 390.950592,175.753006 399.216248,167.314194 
	C405.851105,160.540375 413.143585,162.895676 416.027557,170.150055 
	C420.852844,182.287628 425.954346,194.315414 430.985138,206.782471 
z"/>
<path fill="#020D1A" opacity="1.000000" stroke="none" 
	d="
M435.874390,288.007507 
	C434.796265,288.311340 433.358826,288.657532 432.798462,288.108521 
	C423.786560,279.279266 414.886322,270.336029 406.348846,261.806488 
	C416.389282,251.769958 426.204224,241.958832 436.389771,231.777237 
	C436.885895,236.174133 437.974030,240.902756 437.845184,245.597961 
	C437.460419,259.616821 436.598633,273.622528 435.874390,288.007507 
z"/>
</svg>