<svg version="1.1" id="Layer_1" xmlns="http://www.w3.org/2000/svg" xmlns:xlink="http://www.w3.org/1999/xlink" x="0px" y="0px"
	 width="100%" viewBox="0 0 512 512" enable-background="new 0 0 512 512" xml:space="preserve">
<path fill="#05B9A7" opacity="1.000000" stroke="none" 
	d="
M512.757812,224.705170 
	C513.000000,246.020889 513.000000,267.041779 513.000000,288.531342 
	C511.129364,293.227722 511.861725,297.783783 511.373657,302.182434 
	C509.766479,316.666931 505.621735,330.521362 500.796143,344.166290 
	C491.736511,369.783600 478.895477,393.399139 462.150024,414.814453 
	C440.483063,442.523804 414.593994,465.375275 383.854523,482.684052 
	C360.451782,495.861694 335.656952,505.155792 309.352203,510.490997 
	C303.156128,511.747650 296.785645,511.305023 290.294922,512.757812 
	C268.312439,513.000000 246.624878,513.000000 224.468658,513.000000 
	C219.772308,511.129303 215.205750,511.965668 210.819611,511.354065 
	C191.226517,508.621979 172.656250,502.409698 154.507935,494.786163 
	C129.421280,484.248077 106.722641,469.739380 86.444298,451.762787 
	C64.912041,432.674652 46.524807,410.805054 32.254578,385.628998 
	C19.188211,362.576813 9.840223,338.152496 4.100258,312.290161 
	C2.433891,304.782074 2.718451,297.112091 1.242193,289.294891 
	C1.000000,268.312439 1.000000,247.624878 1.000000,226.468658 
	C2.879449,221.432541 2.007824,216.545349 2.642862,211.831940 
	C5.191953,192.911972 11.025141,174.916306 18.301788,157.380753 
	C28.049171,133.891098 41.165878,112.369614 57.160400,92.603523 
	C59.982048,89.116524 63.049587,85.826981 66.099777,82.554176 
	C70.517387,77.814163 76.321548,77.715492 82.016342,82.046631 
	C86.272469,88.743843 86.272179,92.570511 81.477142,98.145126 
	C66.102913,116.018921 52.763409,135.205673 42.762054,156.629715 
	C31.977020,179.732483 24.982914,203.892349 22.066734,229.244034 
	C20.734869,240.822556 19.772472,252.415176 20.239351,264.066376 
	C21.519083,296.002838 28.442066,326.628845 41.948433,355.673737 
	C45.526989,363.369263 49.625767,370.804901 53.645966,378.708221 
	C58.774673,387.891785 64.635376,396.155121 70.920021,404.067047 
	C92.874649,431.706512 119.646385,453.621552 151.181458,469.417542 
	C176.213486,481.956207 202.751099,489.725769 230.663589,493.045654 
	C263.928284,497.002106 296.398529,493.437500 328.163177,483.501373 
	C359.690857,473.639404 387.805908,457.511261 412.738281,435.734955 
	C434.810242,416.456940 452.609283,393.922699 466.447357,368.122314 
	C481.029144,340.935303 489.783691,312.051422 492.990112,281.383392 
	C497.993988,233.523254 489.112885,188.352554 466.784760,145.857666 
	C457.699158,128.565872 446.132812,112.988281 433.013458,98.421806 
	C418.172668,81.943909 401.022980,68.437943 382.723724,56.191200 
	C382.147156,55.805328 381.518127,55.653893 380.490112,55.394466 
	C354.092407,39.936512 326.406433,29.041607 296.561646,23.819069 
	C271.817535,19.489100 247.090546,19.072744 222.193146,22.788601 
	C195.744400,26.735994 170.906601,35.236729 147.232880,47.462765 
	C143.832321,49.218952 140.656601,51.360199 137.188477,53.000221 
	C129.766495,56.509960 126.655930,56.046295 120.392868,50.024338 
	C117.519058,42.914883 118.800560,38.337269 125.212860,34.533428 
	C143.418777,23.733490 162.592880,15.077182 182.871323,8.848123 
	C195.778473,4.883360 208.944031,2.588269 222.679688,1.247557 
	C244.687561,1.000000 266.375122,1.000000 288.531342,1.000000 
	C293.219177,2.908334 297.786072,2.037746 302.169098,2.643124 
	C320.245819,5.139839 337.414001,10.815970 354.238007,17.627546 
	C380.506622,28.263014 404.390045,42.932892 425.825500,61.394455 
	C453.759796,85.453232 476.085571,113.976486 491.702850,147.478195 
	C500.225922,165.761551 506.667145,184.798248 510.508606,204.663284 
	C511.771698,211.195038 511.231659,217.891663 512.757812,224.705170 
z"/>
<path fill="#000000" opacity="1.000000" stroke="none" 
	d="
M222.531342,1.000000 
	C221.491043,5.080985 217.517899,3.374281 214.976883,3.779078 
	C183.024368,8.869225 153.623154,20.618593 125.723312,36.662628 
	C120.850052,39.465031 120.807007,43.508713 121.039467,48.456039 
	C122.000671,51.067295 120.623177,52.423065 119.150230,53.463074 
	C106.461647,62.422276 94.852554,72.684044 83.279198,82.993233 
	C82.775841,83.441605 82.098068,83.559937 81.070862,83.674759 
	C76.358719,79.745193 71.217079,79.883705 67.361038,84.161690 
	C56.153587,96.595528 46.031548,109.931335 37.507347,124.272171 
	C24.201530,146.657440 13.961865,170.454636 8.009755,195.936340 
	C5.781244,205.476852 3.300737,214.975693 2.886117,224.845200 
	C2.864030,225.370972 2.178114,225.868866 1.400614,226.189865 
	C1.000000,152.405472 1.035521,78.810883 0.895241,5.216626 
	C0.888218,1.531966 1.751955,0.902145 5.275405,0.908107 
	C77.537674,1.030381 149.800201,1.000000 222.531342,1.000000 
z"/>
<path fill="#000000" opacity="1.000000" stroke="none" 
	d="
M513.000000,224.531342 
	C511.072784,225.853897 511.148285,224.293106 511.038940,223.250458 
	C507.831207,192.669739 498.071411,164.109238 483.921783,137.014557 
	C476.046234,121.933960 466.330872,108.025833 455.470490,94.864372 
	C438.055115,73.758987 417.814606,55.943996 394.772614,41.287357 
	C369.269012,25.064939 341.945251,13.207558 312.274017,6.869154 
	C304.923370,5.298899 297.663910,3.422601 290.136017,2.885445 
	C289.602325,2.847363 289.114258,2.169703 288.802490,1.394719 
	C362.261658,1.000000 435.523407,1.035820 508.784790,0.894920 
	C512.473450,0.887826 513.097412,1.757346 513.091553,5.276858 
	C512.970032,78.205315 513.000000,151.134018 513.000000,224.531342 
z"/>
<path fill="#000000" opacity="1.000000" stroke="none" 
	d="
M290.468658,513.000000 
	C289.407288,510.822540 291.057739,511.157227 292.247314,511.011200 
	C315.711761,508.130463 338.052002,501.403198 359.780579,492.143127 
	C379.617737,483.689117 397.950134,472.702362 414.763000,459.455353 
	C439.642120,439.852844 460.611969,416.553589 476.969177,389.256805 
	C490.478821,366.711975 500.306274,342.683441 506.399689,317.136414 
	C508.443604,308.567322 510.312408,299.946686 510.996979,291.129578 
	C511.077057,290.097870 511.156799,289.136200 512.605225,288.802521 
	C513.000000,362.261505 512.964233,435.523071 513.104980,508.784302 
	C513.112061,512.471619 512.244507,513.097595 508.723633,513.091675 
	C436.128357,512.969849 363.532806,513.000000 290.468658,513.000000 
z"/>
<path fill="#000000" opacity="1.000000" stroke="none" 
	d="
M1.000000,289.468658 
	C3.184200,288.415588 2.852129,290.073944 2.986675,291.262909 
	C5.778063,315.930481 13.029468,339.289215 22.898663,362.013611 
	C31.159492,381.034668 41.814983,398.610657 54.549873,414.767365 
	C74.156227,439.641815 97.500938,460.530426 124.731514,476.994965 
	C148.682526,491.476562 174.439774,501.341583 201.575729,507.672089 
	C208.216339,509.221283 214.955292,510.827850 221.869858,511.004089 
	C222.907806,511.030579 223.863937,511.156891 224.197510,512.605286 
	C151.071503,513.000000 78.142929,512.963989 5.214697,513.105225 
	C1.524683,513.112366 0.902716,512.240845 0.908570,508.722656 
	C1.029923,435.794373 1.000000,362.865814 1.000000,289.468658 
z"/>
<path fill="#00FFE5" opacity="1.000000" stroke="none" 
	d="
M380.750183,54.204193 
	C387.983521,55.256313 392.669006,60.263657 398.004761,64.049225 
	C409.670593,72.325851 420.600342,81.567863 430.395416,91.972099 
	C457.948486,121.238617 477.960571,154.831482 488.245789,193.975327 
	C492.775238,211.213638 495.226166,228.630585 496.173157,246.449234 
	C498.215729,284.883514 490.725739,321.300903 474.941559,356.186768 
	C465.155609,377.815491 452.149689,397.275940 436.522583,415.201447 
	C414.892151,440.013214 389.175751,459.324554 359.709564,473.532074 
	C335.804230,485.058380 310.543365,492.455597 283.996582,495.135498 
	C273.256165,496.219696 262.519135,497.425140 251.726913,496.972961 
	C224.198898,495.819458 197.454514,490.806030 171.604965,480.942322 
	C146.829315,471.488342 124.335243,458.175507 104.067986,441.293854 
	C83.409142,424.086090 65.724266,404.120392 52.108528,380.356689 
	C53.057671,378.176361 54.862854,378.038940 56.718029,377.836456 
	C71.950050,376.173767 76.887833,371.878143 80.943764,356.784668 
	C81.254578,355.627991 81.673134,354.594330 82.916672,353.611938 
	C86.054199,352.698914 87.609344,354.587646 89.063080,356.398865 
	C98.741577,368.457367 116.049606,366.835846 124.987297,356.521973 
	C128.689850,352.249298 133.013580,348.524994 136.883011,344.386658 
	C140.065704,340.982819 140.388718,337.346954 137.905716,335.138092 
	C135.550812,333.043152 132.347717,333.533875 129.047531,336.667511 
	C124.697266,340.798279 120.613319,345.206055 116.208702,349.278931 
	C109.009964,355.935425 101.693420,355.282593 96.550667,347.053040 
	C89.092529,335.118347 84.118111,322.038757 80.195122,308.566284 
	C79.241562,305.291473 80.115677,302.317413 82.585045,299.854187 
	C93.557304,288.909058 104.373932,277.807068 115.477058,266.994720 
	C119.449295,263.126526 121.823318,263.292297 126.109474,267.543396 
	C137.586487,278.926544 148.997879,290.375946 160.429291,301.805084 
	C161.725525,303.101044 162.968124,304.459625 164.374619,305.634125 
	C168.988678,309.487061 171.759979,309.434570 176.100418,305.208405 
	C186.488480,295.093842 196.641876,284.742737 206.870468,274.467773 
	C217.455429,263.834869 217.486664,250.271103 206.818665,239.499176 
	C187.118134,219.606689 167.245880,199.885056 147.468079,180.069351 
	C145.366928,177.964172 142.936523,176.040176 142.597778,172.374634 
	C143.374954,167.774231 146.903778,165.407196 149.440887,162.512451 
	C155.936996,155.100616 162.573853,147.738281 171.672073,142.673920 
	C175.472900,142.437729 177.429382,144.855789 179.541916,146.954941 
	C199.505600,166.792038 219.345428,186.753189 239.275970,206.623535 
	C250.154861,217.469574 263.547485,217.611267 274.535492,206.797028 
	C284.623535,196.868515 294.606689,186.832397 304.561493,176.770096 
	C309.418701,171.860489 309.349457,169.081161 304.427063,164.106476 
	C292.596802,152.150543 280.634491,140.325974 268.779816,128.394180 
	C262.255859,121.827797 262.256622,120.170982 268.667664,113.720680 
	C269.489380,112.893929 270.348877,112.101685 271.109039,111.217758 
	C274.109039,107.729279 274.407349,104.232208 271.925110,101.882942 
	C269.575073,99.658775 266.259674,99.962410 262.966034,102.771362 
	C261.445984,104.067719 260.089966,105.545692 258.637054,106.917274 
	C254.253510,111.055443 251.746033,111.191788 247.546402,107.107628 
	C240.025528,99.793549 232.652252,92.328133 225.276978,84.866608 
	C223.630646,83.201027 221.820572,81.417221 222.733078,78.790466 
	C223.694504,76.022934 226.390350,75.408112 228.821976,75.111977 
	C242.841309,73.404648 256.803619,72.301193 271.039673,73.533348 
	C287.760315,74.980537 303.827240,78.602783 319.623169,83.968872 
	C328.809143,87.089455 337.441467,91.406960 345.874023,96.093285 
	C354.796448,101.051819 355.996796,108.607002 349.173157,116.280632 
	C343.973572,122.127861 338.094666,127.335770 332.701874,133.009048 
	C329.301636,136.586121 328.884033,139.728470 331.417999,142.129013 
	C333.719360,144.309189 337.083313,143.962341 340.302277,140.926270 
	C346.723541,134.869873 353.004791,128.654709 359.029327,122.212349 
	C367.331970,113.333885 366.478027,98.452415 357.471710,90.233383 
	C355.642120,88.563698 353.362488,87.272942 353.212830,84.033997 
	C354.011139,81.665588 355.703705,81.234657 357.567596,80.874039 
	C370.677979,78.337494 376.077148,72.812004 378.666290,59.372059 
	C379.004486,57.616306 378.823456,55.690060 380.750183,54.204193 
z"/>
<path fill="#020C19" opacity="1.000000" stroke="none" 
	d="
M380.932526,53.733498 
	C381.495483,60.938843 379.477448,67.317535 375.842560,72.944260 
	C370.905640,80.586540 363.140594,83.157288 354.110779,83.488686 
	C351.318970,86.229454 349.143280,84.071907 347.083527,83.061356 
	C329.952698,74.656654 312.141907,68.283333 293.358215,64.760490 
	C261.697296,58.822548 230.454788,60.497734 199.672104,70.053444 
	C186.446793,74.158920 173.812408,79.551918 161.555130,86.108238 
	C147.695816,93.521454 143.713150,110.738068 155.908524,124.111824 
	C160.061127,128.665695 164.612076,132.844757 168.916901,137.257858 
	C170.519363,138.900635 172.473206,140.412537 171.962921,143.484192 
	C161.835449,152.209167 152.681747,161.370483 144.014862,171.478485 
	C140.306381,173.120087 138.269974,170.560120 136.071808,168.674759 
	C130.896179,164.235626 126.899666,158.641998 121.631126,154.233124 
	C110.685837,145.073730 93.959488,148.050278 86.825020,160.453979 
	C72.390648,185.548965 64.476616,212.564102 62.044205,241.343277 
	C58.997948,277.385071 65.823868,311.481598 81.511215,343.947693 
	C82.914032,346.850922 85.370880,349.540802 84.055969,353.548218 
	C81.829422,356.616760 82.710533,360.015961 81.647453,363.136810 
	C77.650192,374.871521 67.966705,379.811768 56.397835,379.941010 
	C55.235806,379.953979 54.074070,379.993744 52.457092,380.022278 
	C42.650200,363.008209 34.095673,345.651398 28.556927,326.940430 
	C23.551359,310.030640 20.196507,292.885620 18.879517,275.239471 
	C18.210152,266.270813 17.780102,257.319336 18.219652,248.411514 
	C19.489262,222.681854 24.127239,197.594650 33.297966,173.375549 
	C41.865528,150.749359 53.626072,129.977951 68.212372,110.764091 
	C71.897240,105.910187 75.845558,101.229462 79.975861,96.748482 
	C83.679771,92.730118 84.295029,88.777657 80.879189,84.017670 
	C87.001663,75.655220 95.111595,69.533401 102.915169,63.116108 
	C108.684044,58.372055 114.762756,54.004772 120.884964,49.178596 
	C125.022865,51.178555 128.446777,55.379158 133.872269,52.181343 
	C135.996689,50.929192 138.372070,50.104347 140.503479,48.862328 
	C163.167084,35.655643 187.476273,26.968866 213.203476,22.039761 
	C231.007217,18.628721 248.983826,17.226990 267.031281,18.200806 
	C295.138947,19.717457 322.348633,25.603306 348.295044,36.795994 
	C359.486267,41.623638 370.492920,46.806103 380.932526,53.733498 
z"/>
<path fill="#05B9A8" opacity="1.000000" stroke="none" 
	d="
M269.264893,413.736023 
	C260.503967,404.970123 260.503845,404.970001 251.891342,413.582764 
	C245.767639,419.706696 239.616196,425.803406 233.546692,431.980652 
	C232.449310,433.097473 230.219574,434.044250 230.927216,435.809509 
	C231.725052,437.799683 234.080078,437.865540 236.115891,438.026581 
	C242.898682,438.563171 249.662003,439.193481 256.491272,439.130096 
	C260.647675,439.091522 263.848846,440.986847 264.685333,445.569672 
	C265.357666,449.253143 263.412933,451.732910 260.633820,453.448822 
	C258.694244,454.646362 256.333710,455.169373 253.917236,454.965149 
	C237.739792,453.597809 221.515808,452.481781 205.817123,447.932312 
	C190.300415,443.435547 175.160721,437.895264 161.051697,429.933655 
	C144.470688,420.577148 142.031113,401.519012 155.532333,388.002258 
	C182.602890,360.900513 209.693649,333.818939 236.789337,306.742310 
	C249.781372,293.759399 264.305145,293.832031 277.379730,306.906219 
	C304.230804,333.756378 331.084900,360.603516 357.930054,387.459595 
	C372.615356,402.150848 369.514832,421.539307 350.981537,430.985443 
	C338.527924,437.332825 325.615601,442.513824 312.386108,447.059418 
	C304.517426,449.763031 300.484528,444.509827 296.097443,440.398193 
	C286.987274,431.860077 278.347656,422.819855 269.264893,413.736023 
z"/>
<path fill="#05B9A7" opacity="1.000000" stroke="none" 
	d="
M84.130508,354.031830 
	C73.456543,334.818878 66.015640,314.690002 62.154236,293.346832 
	C59.288063,277.504669 57.834946,261.438232 59.058792,245.382492 
	C61.176010,217.606445 67.832298,190.950363 80.859917,166.103394 
	C84.875595,158.444473 88.879074,151.078003 97.886551,147.804611 
	C105.517899,145.031326 116.610611,146.839050 122.864777,152.081619 
	C130.093079,158.140778 135.315460,166.247696 143.538300,171.646881 
	C143.877319,174.275574 145.951447,175.433090 147.426605,176.912689 
	C167.653152,197.200150 187.728897,217.643814 208.257660,237.621658 
	C218.651459,247.736481 220.341690,265.465790 208.166870,276.508606 
	C197.692932,286.008698 188.055206,296.430115 178.037201,306.433594 
	C172.017242,312.444885 168.091370,312.492737 161.956116,306.399628 
	C149.311050,293.841461 136.644104,281.302246 124.208305,268.538757 
	C121.334045,265.588806 119.755257,265.472198 116.831390,268.496796 
	C106.067062,279.632050 95.041878,290.517151 84.005150,301.385010 
	C82.143898,303.217773 81.253395,304.962372 82.046471,307.504059 
	C86.261971,321.014374 91.121330,334.269714 98.655525,346.332458 
	C102.919304,353.158997 108.434441,353.714355 114.320938,348.145660 
	C118.916992,343.797699 123.275307,339.199493 127.783829,334.757721 
	C131.922455,330.680389 136.320953,330.169312 139.663879,333.288605 
	C143.019455,336.419708 142.817688,341.752075 138.749115,345.642670 
	C132.510406,351.608459 127.292068,358.720001 119.947159,363.437866 
	C109.677879,370.034210 93.685654,368.217407 85.800446,355.635315 
	C85.456642,355.086731 84.898369,354.672577 84.130508,354.031830 
z"/>
<path fill="#05B9A8" opacity="1.000000" stroke="none" 
	d="
M342.737183,291.262817 
	C361.135315,309.660736 379.302887,327.789276 397.413696,345.974396 
	C400.661835,349.235901 404.035583,351.728027 408.934723,352.194733 
	C412.953461,352.577576 414.976715,355.895172 414.809387,359.673126 
	C414.635345,363.603333 412.559631,366.627777 408.084412,366.957947 
	C401.041351,367.477509 394.850891,365.235229 389.916107,360.323761 
	C361.094360,331.637817 332.343597,302.880280 303.639282,274.076721 
	C294.675201,265.081604 294.631012,249.098373 303.961426,239.674789 
	C332.337402,211.015518 360.831055,182.470291 389.517365,154.121948 
	C401.838623,141.945862 421.422974,145.762985 429.556244,160.970169 
	C438.944214,178.523468 445.888397,196.886368 450.045227,216.340714 
	C454.315582,236.326538 454.955353,256.449036 453.154510,276.770660 
	C452.256927,286.899200 450.454437,296.798035 448.067963,306.643036 
	C447.218323,310.148163 446.411499,313.536377 442.373993,314.661133 
	C438.078857,315.857635 435.124237,313.677460 432.271545,310.795685 
	C420.547211,298.951813 408.637085,287.290405 397.009155,275.353516 
	C394.268127,272.539612 392.556610,272.314941 390.004639,275.365997 
	C387.555420,278.294250 384.723175,280.925018 381.897644,283.509888 
	C378.508026,286.610809 373.806213,286.931824 370.999237,284.483551 
	C367.476624,281.411102 366.980286,277.634735 370.189697,273.426483 
	C372.865479,269.918030 375.632843,266.397614 379.344421,263.802917 
	C381.733002,262.133118 381.972748,260.363464 379.704132,258.121918 
	C368.560669,247.111465 357.491669,236.025070 346.466431,224.896072 
	C344.635956,223.048370 343.313599,223.088486 341.508514,224.917526 
	C332.728912,233.813705 323.844879,242.606720 315.032623,251.470886 
	C311.990601,254.530869 312.328430,258.105042 314.124023,261.534821 
	C315.104584,263.407806 316.609741,265.070221 318.115082,266.593658 
	C326.198059,274.773926 334.355499,282.880676 342.737183,291.262817 
z"/>
<path fill="#05B9A7" opacity="1.000000" stroke="none" 
	d="
M172.133194,143.830719 
	C165.848709,137.756851 159.902023,131.713257 154.022736,125.604797 
	C144.396957,115.603821 143.285034,100.582497 151.905731,90.654266 
	C157.653885,84.034279 165.816360,80.666924 173.601227,77.190483 
	C188.455261,70.557220 203.811920,65.162109 219.913269,62.496708 
	C236.697800,59.718216 253.501297,58.078430 270.678864,59.622913 
	C286.010254,61.001400 301.003021,63.356697 315.671143,67.895020 
	C328.711121,71.929596 341.333557,76.965584 353.518280,83.837021 
	C354.690186,85.584641 356.326080,86.431038 357.788574,87.540695 
	C368.836548,95.923325 370.203644,113.981659 360.516144,123.927368 
	C354.353699,130.254028 348.075684,136.469604 341.781067,142.665466 
	C337.722931,146.659958 332.601257,147.048706 329.392700,143.768341 
	C325.960876,140.259705 326.465698,136.107147 330.936768,131.600632 
	C336.218658,126.276863 341.609985,121.059769 346.819550,115.666687 
	C353.969269,108.265099 352.977570,102.397530 344.076904,97.504677 
	C323.139160,85.994797 300.725342,79.044739 277.092468,76.111351 
	C260.363861,74.034950 243.658920,74.683670 227.044556,77.746078 
	C223.040222,78.484177 223.017715,79.631447 225.683014,82.254280 
	C233.878922,90.319542 242.049133,98.414696 250.050751,106.671303 
	C252.439514,109.136169 254.031860,108.846062 256.104370,106.483917 
	C258.077759,104.234718 260.216492,102.096939 262.489471,100.152000 
	C266.091583,97.069695 270.650726,97.206757 273.709290,100.250809 
	C276.765747,103.292778 276.937256,107.878403 273.883636,111.467270 
	C271.945404,113.745224 269.833405,115.921463 267.550110,117.847885 
	C264.784149,120.181511 265.228760,121.878838 267.644958,124.259880 
	C280.701904,137.126846 293.622253,150.132507 306.574402,163.105652 
	C312.184357,168.724670 312.190826,172.264633 306.603821,177.864380 
	C296.127808,188.364258 285.639038,198.851425 275.140778,209.329056 
	C264.841461,219.608170 249.210678,219.667206 238.977280,209.445099 
	C218.343475,188.834137 197.734268,168.198532 177.096939,147.591110 
	C175.697052,146.193253 174.498032,144.514542 172.133194,143.830719 
z"/>
<path fill="#A2D0FF" opacity="1.000000" stroke="none" 
	d="
M325.114868,424.123840 
	C320.717102,425.698364 316.700745,427.203217 312.686157,428.712708 
	C310.729462,429.448425 309.233337,428.856293 307.777924,427.391205 
	C297.207825,416.751373 286.628815,406.119324 275.932281,395.607269 
	C274.113129,393.819519 274.323456,392.751678 276.077576,391.309448 
	C277.230316,390.361694 278.254944,389.245941 279.266785,388.141174 
	C283.212463,383.833252 282.949951,379.265961 278.550079,375.060944 
	C274.645233,371.329010 270.419891,371.374023 266.352173,375.190918 
	C260.808929,380.392303 260.808380,380.392853 255.571320,375.154846 
	C245.909515,365.491425 236.322693,355.750946 226.530487,346.221527 
	C224.305252,344.056000 224.371506,342.945007 226.561203,340.835358 
	C234.240479,333.436920 241.660522,325.770325 249.247391,318.274780 
	C254.840744,312.748749 259.124023,312.671326 264.618591,318.152313 
	C291.754486,345.221222 318.865631,372.315155 345.919159,399.466370 
	C352.170349,405.740204 351.233215,410.404144 343.758179,415.229797 
	C337.998138,418.948273 331.644653,421.245544 325.114868,424.123840 
z"/>
<path fill="#A2D0FF" opacity="1.000000" stroke="none" 
	d="
M225.251251,370.748779 
	C232.086411,377.585114 238.615051,384.229614 245.292160,390.721405 
	C247.229507,392.604980 248.042694,393.691284 245.585403,396.077576 
	C234.490585,406.851868 223.630188,417.868042 212.725067,428.836578 
	C211.241623,430.328613 209.794876,431.568787 207.528534,430.798462 
	C194.423462,426.344147 181.164124,422.218689 169.300705,414.839417 
	C162.907791,410.862885 161.931122,405.891968 167.075317,400.592651 
	C180.859024,386.393219 195.013977,372.554718 208.941101,358.493225 
	C210.819519,356.596680 211.908020,357.324249 213.376984,358.838043 
	C217.198654,362.776459 221.119797,366.618347 225.251251,370.748779 
z"/>
<path fill="#00FFE5" opacity="1.000000" stroke="none" 
	d="
M132.464752,185.802017 
	C134.209625,187.068039 135.673676,188.170654 136.958313,189.453003 
	C157.104645,209.563629 177.231445,229.693817 197.353989,249.828262 
	C203.028519,255.506104 203.082703,259.359131 197.422134,265.081299 
	C189.344299,273.247009 181.129883,281.278351 173.106506,289.496643 
	C171.138733,291.512177 169.928711,291.565826 167.918594,289.523987 
	C156.824249,278.254761 145.647598,267.064819 134.367462,255.981735 
	C132.188339,253.840683 132.699860,252.587158 134.611954,250.792145 
	C136.896759,248.647202 139.244888,246.555191 140.727707,243.628693 
	C142.660660,239.813797 142.350525,236.423523 139.035385,233.800522 
	C135.615677,231.094788 131.883896,231.319702 128.529282,234.113068 
	C126.617538,235.704956 124.785721,237.456863 123.216820,239.380524 
	C121.175865,241.882996 119.597733,241.560791 117.692505,239.260132 
	C114.319931,235.187576 109.613457,232.321838 106.949730,227.181213 
	C106.211212,225.000580 106.380196,223.221924 107.278412,221.524200 
	C113.338104,210.070862 119.273796,198.542694 127.660507,188.521423 
	C128.866898,187.079926 130.018112,185.703720 132.464752,185.802017 
z"/>
<path fill="#020D19" opacity="1.000000" stroke="none" 
	d="
M132.723557,185.577789 
	C125.521278,193.157944 120.555672,202.061539 115.527374,210.907776 
	C112.659721,215.952820 109.975945,221.102386 107.046722,226.516647 
	C99.750420,219.861191 92.630997,212.879272 85.471710,205.938461 
	C83.946037,204.459351 83.912666,202.965393 84.540497,201.001312 
	C88.256737,189.375610 93.546196,178.436844 99.260796,167.722427 
	C102.417770,161.803360 108.765442,161.581024 114.247223,166.898865 
	C120.463036,172.928802 126.502159,179.140869 132.723557,185.577789 
z"/>
<path fill="#020E1B" opacity="1.000000" stroke="none" 
	d="
M90.796280,270.792358 
	C87.512306,274.684509 84.061707,278.260498 80.579170,281.805115 
	C79.905952,282.490356 79.271797,283.624237 78.194756,283.316772 
	C77.110199,283.007141 77.150986,281.817688 77.060165,280.793518 
	C75.467278,262.831604 75.335609,244.900772 78.059196,227.018616 
	C78.184677,226.194763 78.095016,225.296463 78.927711,224.834259 
	C80.162773,224.148712 80.698341,225.327515 81.323402,225.948807 
	C87.445572,232.033951 93.529198,238.157867 99.734085,244.573425 
	C100.537292,248.911469 98.061043,252.133148 96.928299,255.666153 
	C95.291740,260.770538 94.418068,266.262543 90.796280,270.792358 
z"/>
<path fill="#00FFE5" opacity="1.000000" stroke="none" 
	d="
M91.163979,270.840088 
	C88.904671,268.455719 91.517723,266.363922 92.085175,264.169098 
	C93.776596,257.626892 95.262177,250.929550 99.530151,245.042648 
	C109.884407,252.642014 109.915611,252.673553 101.033699,261.458923 
	C97.886444,264.571960 95.063820,268.042358 91.163979,270.840088 
z"/>
<path fill="#A2D0FF" opacity="1.000000" stroke="none" 
	d="
M428.948853,202.181641 
	C431.886139,208.355682 429.853302,212.289505 425.248840,216.526932 
	C415.212097,225.763596 405.759491,235.641785 396.216583,245.402908 
	C394.162506,247.503922 393.070587,247.789963 390.841156,245.500763 
	C380.504272,234.886719 369.994110,224.439331 359.426788,214.053543 
	C357.244568,211.908798 356.727295,210.600388 359.234772,208.141525 
	C372.785309,194.853806 386.086945,181.312714 399.585663,167.971558 
	C405.767944,161.861465 411.285614,162.931610 415.284149,170.482925 
	C420.627686,180.574249 425.222961,190.973938 428.948853,202.181641 
z"/>
<path fill="#A2D0FF" opacity="1.000000" stroke="none" 
	d="
M436.056091,278.006866 
	C435.632965,281.697510 435.218933,284.936218 434.635681,289.498566 
	C429.052307,283.800507 424.129456,278.750092 419.175781,273.730164 
	C415.674164,270.181671 412.131073,266.674103 408.605621,263.149170 
	C407.523773,262.067535 406.350403,261.077423 407.983002,259.459076 
	C417.029144,250.491989 426.042206,241.491516 435.659912,231.911453 
	C437.359344,247.684738 437.916656,262.600555 436.056091,278.006866 
z"/>
<path fill="#00FFE5" opacity="1.000000" stroke="none" 
	d="
M256.332611,134.807877 
	C267.415710,145.887634 278.194183,156.791840 289.145905,167.519180 
	C291.464661,169.790436 291.581848,171.131805 289.187469,173.445282 
	C280.919678,181.433746 272.925537,189.704529 264.723145,197.761871 
	C259.192902,203.194305 254.774124,203.181992 249.227997,197.715149 
	C239.971268,188.590759 230.902695,179.274475 221.586441,170.212158 
	C219.071350,167.765610 219.079849,166.231735 221.588882,163.785812 
	C231.372726,154.248047 241.004883,144.552994 250.590439,134.815018 
	C252.543427,132.830978 254.119980,131.769104 256.332611,134.807877 
z"/>
<path fill="#020D19" opacity="1.000000" stroke="none" 
	d="
M186.195053,132.847870 
	C178.943130,126.046303 171.901367,119.449257 165.220673,112.504898 
	C161.199860,108.325401 162.517288,102.052216 167.953354,99.153717 
	C178.819962,93.359703 189.912369,88.065254 201.805771,84.567245 
	C204.157257,83.875641 205.171738,84.751457 206.472794,86.059372 
	C213.167496,92.789330 219.868835,99.512650 226.677872,106.536682 
	C227.057938,108.778000 225.971512,110.025017 224.456238,110.836945 
	C212.365540,117.315521 200.841019,124.715065 189.395081,132.246948 
	C188.559265,132.796951 187.591797,133.068253 186.195053,132.847870 
z"/>
<path fill="#00FFE5" opacity="1.000000" stroke="none" 
	d="
M185.836700,133.155975 
	C193.156265,126.342812 201.595871,121.538597 209.895203,116.544106 
	C215.258514,113.316498 220.758118,110.315392 226.492264,107.023926 
	C232.781967,109.463646 236.014130,115.191406 240.708298,119.280579 
	C242.238525,120.613579 240.854477,121.652412 239.948532,122.560219 
	C229.736313,132.793381 219.500198,143.002716 209.291321,153.239197 
	C207.952667,154.581467 206.690659,155.303772 205.106171,153.608047 
	C198.771774,146.829102 191.455124,140.992279 185.836700,133.155975 
z"/>
</svg>